<svg xmlns="http://www.w3.org/2000/svg" width="980" height="1220" viewBox="0 0 980 1220">
<rect x="0.00" y="0.00" width="980.00" height="1220.00" fill="#FCFAF5" />
<text x="490.00" y="38.00" fill="#222222" font-family="Helvetica, Arial, sans-serif" font-size="17" font-weight="700" text-anchor="middle">Recovery Dynamics Under Sustained GPU-3 Overload</text>
<text x="490.00" y="58.00" fill="#5A5248" font-family="Helvetica, Arial, sans-serif" font-size="11" text-anchor="middle">Bold curves are phase-smoothed trends derived from the actual runs; faint curves show the measured traces.</text>
<line x1="760.00" y1="88.00" x2="794.00" y2="88.00" stroke="#4C6A92" stroke-width="3.3" />
<text x="802.00" y="92.00" fill="#2B2B2B" font-family="Helvetica, Arial, sans-serif" font-size="12">TSPipe baseline</text>
<line x1="760.00" y1="110.00" x2="794.00" y2="110.00" stroke="#C46A2D" stroke-width="3.3" />
<text x="802.00" y="114.00" fill="#2B2B2B" font-family="Helvetica, Arial, sans-serif" font-size="12">Failover + REPLAN</text>
<rect x="92.00" y="80.00" width="864.00" height="254.00" fill="#FCFAF5" />
<line x1="92.00" y1="309.42" x2="956.00" y2="309.42" stroke="#B8AEA1" stroke-width="0.8" stroke-dasharray="3 4" opacity="0.45" />
<text x="80.00" y="313.42" fill="#4D463E" font-family="Helvetica, Arial, sans-serif" font-size="11" text-anchor="end">1.0</text>
<line x1="92.00" y1="268.45" x2="956.00" y2="268.45" stroke="#B8AEA1" stroke-width="0.8" stroke-dasharray="3 4" opacity="0.45" />
<text x="80.00" y="272.45" fill="#4D463E" font-family="Helvetica, Arial, sans-serif" font-size="11" text-anchor="end">1.2</text>
<line x1="92.00" y1="227.48" x2="956.00" y2="227.48" stroke="#B8AEA1" stroke-width="0.8" stroke-dasharray="3 4" opacity="0.45" />
<text x="80.00" y="231.48" fill="#4D463E" font-family="Helvetica, Arial, sans-serif" font-size="11" text-anchor="end">1.4</text>
<line x1="92.00" y1="186.52" x2="956.00" y2="186.52" stroke="#B8AEA1" stroke-width="0.8" stroke-dasharray="3 4" opacity="0.45" />
<text x="80.00" y="190.52" fill="#4D463E" font-family="Helvetica, Arial, sans-serif" font-size="11" text-anchor="end">1.6</text>
<line x1="92.00" y1="145.55" x2="956.00" y2="145.55" stroke="#B8AEA1" stroke-width="0.8" stroke-dasharray="3 4" opacity="0.45" />
<text x="80.00" y="149.55" fill="#4D463E" font-family="Helvetica, Arial, sans-serif" font-size="11" text-anchor="end">1.8</text>
<line x1="92.00" y1="104.58" x2="956.00" y2="104.58" stroke="#B8AEA1" stroke-width="0.8" stroke-dasharray="3 4" opacity="0.45" />
<text x="80.00" y="108.58" fill="#4D463E" font-family="Helvetica, Arial, sans-serif" font-size="11" text-anchor="end">2.0</text>
<line x1="166.06" y1="80.00" x2="166.06" y2="334.00" stroke="#D2C9BD" stroke-width="0.75" opacity="0.25" />
<line x1="289.49" y1="80.00" x2="289.49" y2="334.00" stroke="#D2C9BD" stroke-width="0.75" opacity="0.25" />
<line x1="412.91" y1="80.00" x2="412.91" y2="334.00" stroke="#D2C9BD" stroke-width="0.75" opacity="0.25" />
<line x1="536.34" y1="80.00" x2="536.34" y2="334.00" stroke="#D2C9BD" stroke-width="0.75" opacity="0.25" />
<line x1="659.77" y1="80.00" x2="659.77" y2="334.00" stroke="#D2C9BD" stroke-width="0.75" opacity="0.25" />
<line x1="783.20" y1="80.00" x2="783.20" y2="334.00" stroke="#D2C9BD" stroke-width="0.75" opacity="0.25" />
<line x1="906.63" y1="80.00" x2="906.63" y2="334.00" stroke="#D2C9BD" stroke-width="0.75" opacity="0.25" />
<line x1="92.00" y1="334.00" x2="956.00" y2="334.00" stroke="#49423A" stroke-width="1.2" />
<line x1="92.00" y1="80.00" x2="92.00" y2="334.00" stroke="#49423A" stroke-width="1.2" />
<line x1="166.06" y1="80.00" x2="166.06" y2="334.00" stroke="#F08C3A" stroke-width="1.8" stroke-dasharray="5 4" opacity="0.95" />
<text x="172.06" y="95.00" fill="#E07A27" font-family="Helvetica, Arial, sans-serif" font-size="11">GPU3 overload</text>
<rect x="1276.91" y="80.00" width="123.43" height="254.00" fill="#F3E3B5" opacity="0.45" />
<line x1="1276.91" y1="80.00" x2="1276.91" y2="334.00" stroke="#14A27D" stroke-width="2.2" />
<text x="1290.91" y="106.00" fill="#14A27D" font-family="Helvetica, Arial, sans-serif" font-size="12" font-weight="700">REPLAN</text>
<rect x="870.00" y="90.00" width="72.00" height="21.00" fill="#F0ECE3" opacity="0.92" rx="4" ry="4" />
<text x="906.00" y="105.00" fill="#7B746A" font-family="Helvetica, Arial, sans-serif" font-size="11" text-anchor="middle">Batch 64</text>
<path d="M 92.00 363.13 L 104.34 363.91 L 116.69 363.91 L 129.03 362.47 L 141.37 347.99 L 153.71 319.44 L 166.06 284.80 L 178.40 249.21 L 190.74 215.06 L 203.09 193.95 L 215.43 186.90 L 227.77 185.53 L 240.11 185.12 L 252.46 184.70 L 264.80 184.29 L 277.14 183.87 L 289.49 183.63 L 301.83 183.38 L 314.17 182.45 L 326.51 182.20 L 338.86 182.11 L 351.20 182.26 L 363.54 182.40 L 375.89 183.44 L 388.23 183.78 L 400.57 183.97 L 412.91 184.16 L 425.26 184.35 L 437.60 184.35 L 449.94 184.35 L 462.29 186.39 L 474.63 188.42 L 486.97 189.19 L 499.31 191.23 L 511.66 193.26 L 524.00 193.26 L 536.34 193.26 L 548.69 193.26 L 561.03 191.99 L 573.37 190.72 L 585.71 189.46 L 598.06 186.67 L 610.40 185.14 L 622.74 183.62 L 635.09 182.10 L 647.43 180.58 L 659.77 179.82 L 672.11 179.05 L 684.46 178.29 L 696.80 177.53 L 709.14 176.75 L 721.49 176.73 L 733.83 176.71 L 746.17 179.26 L 758.51 181.81 L 770.86 186.99 L 783.20 189.56 L 795.54 192.14 L 807.89 192.08 L 820.23 192.08 L 832.57 189.42 L 844.91 189.37 L 857.26 188.19 L 869.60 187.06 L 881.94 184.23 L 894.29 181.46 L 906.63 178.69 L 918.97 176.70 L 931.31 174.70 L 943.66 173.84 L 956.00 173.49" fill="none" stroke="#4C6A92" stroke-width="1.8" opacity="0.24" />
<path d="M 92.00 344.60 L 104.34 344.52 L 116.69 344.32 L 129.03 341.29 L 141.37 337.59 L 153.71 304.57 L 166.06 270.38 L 178.40 235.19 L 190.74 202.18 L 203.09 169.82 L 215.43 166.86 L 227.77 165.06 L 240.11 164.32 L 252.46 163.73 L 264.80 163.68 L 277.14 162.65 L 289.49 162.81 L 301.83 163.31 L 314.17 163.81 L 326.51 164.02 L 338.86 164.21 L 351.20 164.21 L 363.54 162.92 L 375.89 161.63 L 388.23 161.63 L 400.57 162.63 L 412.91 161.63 L 425.26 161.63 L 437.60 161.59 L 449.94 160.56 L 462.29 159.52 L 474.63 159.49 L 486.97 159.45 L 499.31 159.45 L 511.66 159.43 L 524.00 159.43 L 536.34 158.21 L 548.69 158.01 L 561.03 157.81 L 573.37 157.61 L 585.71 156.40 L 598.06 157.42 L 610.40 156.40 L 622.74 155.38 L 635.09 155.37 L 647.43 156.38 L 659.77 156.71 L 672.11 158.16 L 684.46 159.61 L 696.80 160.06 L 709.14 160.49 L 721.49 160.87 L 733.83 161.15 L 746.17 161.44 L 758.51 161.72 L 770.86 161.52 L 783.20 157.82 L 795.54 151.16 L 807.89 144.50 L 820.23 137.83 L 832.57 131.64 L 844.91 128.68 L 857.26 128.68 L 869.60 128.68 L 881.94 131.24 L 894.29 135.08 L 906.63 139.02 L 918.97 142.86 L 931.31 146.80 L 943.66 148.68 L 956.00 148.78" fill="none" stroke="#C46A2D" stroke-width="1.8" opacity="0.24" />
<path d="M 92.00 362.80 L 104.34 362.80 L 116.69 362.80 L 129.03 362.80 L 141.37 362.80 L 153.71 353.89 L 166.06 336.08 L 178.40 309.37 L 190.74 273.75 L 203.09 238.12 L 215.43 211.37 L 227.77 193.52 L 240.11 184.56 L 252.46 184.49 L 264.80 184.42 L 277.14 184.35 L 289.49 184.28 L 301.83 184.21 L 314.17 184.14 L 326.51 184.07 L 338.86 184.00 L 351.20 183.93 L 363.54 183.86 L 375.89 183.79 L 388.23 183.72 L 400.57 183.65 L 412.91 183.58 L 425.26 183.53 L 437.60 183.51 L 449.94 183.52 L 462.29 183.55 L 474.63 183.60 L 486.97 183.66 L 499.31 183.71 L 511.66 183.77 L 524.00 183.83 L 536.34 183.88 L 548.69 183.94 L 561.03 183.99 L 573.37 184.05 L 585.71 184.10 L 598.06 184.16 L 610.40 184.21 L 622.74 184.27 L 635.09 184.32 L 647.43 184.38 L 659.77 184.44 L 672.11 184.49 L 684.46 184.55 L 696.80 184.60 L 709.14 184.66 L 721.49 184.71 L 733.83 184.77 L 746.17 184.82 L 758.51 184.88 L 770.86 184.93 L 783.20 184.99 L 795.54 185.05 L 807.89 185.10 L 820.23 185.16 L 832.57 185.21 L 844.91 185.27 L 857.26 185.32 L 869.60 185.38 L 881.94 185.43 L 894.29 185.49 L 906.63 185.54 L 918.97 185.60 L 931.31 185.66 L 943.66 185.70 L 956.00 185.73" fill="none" stroke="#4C6A92" stroke-width="3.4" stroke-linecap="round" stroke-linejoin="round" />
<path d="M 92.00 342.81 L 104.34 342.81 L 116.69 342.81 L 129.03 342.81 L 141.37 342.81 L 153.71 333.85 L 166.06 315.95 L 178.40 289.08 L 190.74 253.27 L 203.09 217.74 L 215.43 191.47 L 227.77 174.44 L 240.11 166.66 L 252.46 168.13 L 264.80 169.60 L 277.14 171.07 L 289.49 172.53 L 301.83 174.00 L 314.17 175.47 L 326.51 176.94 L 338.86 178.41 L 351.20 179.87 L 363.54 181.34 L 375.89 182.81 L 388.23 184.28 L 400.57 185.74 L 412.91 187.21 L 425.26 188.68 L 437.60 190.15 L 449.94 191.62 L 462.29 193.08 L 474.63 194.55 L 486.97 196.02 L 499.31 197.49 L 511.66 198.96 L 524.00 200.42 L 536.34 201.89 L 548.69 203.36 L 561.03 204.83 L 573.37 206.29 L 585.71 207.76 L 598.06 209.23 L 610.40 210.70 L 622.74 212.17 L 635.09 213.63 L 647.43 215.10 L 659.77 216.57 L 672.11 218.04 L 684.46 219.51 L 696.80 220.97 L 709.14 222.44 L 721.49 223.91 L 733.83 225.38 L 746.17 226.84 L 758.51 228.31 L 770.86 229.78 L 783.20 231.25 L 795.54 232.72 L 807.89 234.18 L 820.23 235.65 L 832.57 237.12 L 844.91 238.59 L 857.26 240.05 L 869.60 241.52 L 881.94 242.99 L 894.29 244.46 L 906.63 245.93 L 918.97 247.39 L 931.31 248.86 L 943.66 250.04 L 956.00 250.92" fill="none" stroke="#C46A2D" stroke-width="3.4" stroke-linecap="round" stroke-linejoin="round" />
<text x="26.00" y="207.00" fill="#2E2A25" transform="rotate(-90 26 207.00)" font-family="Helvetica, Arial, sans-serif" font-size="12" text-anchor="middle">Norm. compute time</text>
<rect x="92.00" y="352.00" width="864.00" height="254.00" fill="#FCFAF5" />
<line x1="92.00" y1="581.42" x2="956.00" y2="581.42" stroke="#B8AEA1" stroke-width="0.8" stroke-dasharray="3 4" opacity="0.45" />
<text x="80.00" y="585.42" fill="#4D463E" font-family="Helvetica, Arial, sans-serif" font-size="11" text-anchor="end">1.0</text>
<line x1="92.00" y1="540.45" x2="956.00" y2="540.45" stroke="#B8AEA1" stroke-width="0.8" stroke-dasharray="3 4" opacity="0.45" />
<text x="80.00" y="544.45" fill="#4D463E" font-family="Helvetica, Arial, sans-serif" font-size="11" text-anchor="end">1.2</text>
<line x1="92.00" y1="499.48" x2="956.00" y2="499.48" stroke="#B8AEA1" stroke-width="0.8" stroke-dasharray="3 4" opacity="0.45" />
<text x="80.00" y="503.48" fill="#4D463E" font-family="Helvetica, Arial, sans-serif" font-size="11" text-anchor="end">1.4</text>
<line x1="92.00" y1="458.52" x2="956.00" y2="458.52" stroke="#B8AEA1" stroke-width="0.8" stroke-dasharray="3 4" opacity="0.45" />
<text x="80.00" y="462.52" fill="#4D463E" font-family="Helvetica, Arial, sans-serif" font-size="11" text-anchor="end">1.6</text>
<line x1="92.00" y1="417.55" x2="956.00" y2="417.55" stroke="#B8AEA1" stroke-width="0.8" stroke-dasharray="3 4" opacity="0.45" />
<text x="80.00" y="421.55" fill="#4D463E" font-family="Helvetica, Arial, sans-serif" font-size="11" text-anchor="end">1.8</text>
<line x1="92.00" y1="376.58" x2="956.00" y2="376.58" stroke="#B8AEA1" stroke-width="0.8" stroke-dasharray="3 4" opacity="0.45" />
<text x="80.00" y="380.58" fill="#4D463E" font-family="Helvetica, Arial, sans-serif" font-size="11" text-anchor="end">2.0</text>
<line x1="166.06" y1="352.00" x2="166.06" y2="606.00" stroke="#D2C9BD" stroke-width="0.75" opacity="0.25" />
<line x1="289.49" y1="352.00" x2="289.49" y2="606.00" stroke="#D2C9BD" stroke-width="0.75" opacity="0.25" />
<line x1="412.91" y1="352.00" x2="412.91" y2="606.00" stroke="#D2C9BD" stroke-width="0.75" opacity="0.25" />
<line x1="536.34" y1="352.00" x2="536.34" y2="606.00" stroke="#D2C9BD" stroke-width="0.75" opacity="0.25" />
<line x1="659.77" y1="352.00" x2="659.77" y2="606.00" stroke="#D2C9BD" stroke-width="0.75" opacity="0.25" />
<line x1="783.20" y1="352.00" x2="783.20" y2="606.00" stroke="#D2C9BD" stroke-width="0.75" opacity="0.25" />
<line x1="906.63" y1="352.00" x2="906.63" y2="606.00" stroke="#D2C9BD" stroke-width="0.75" opacity="0.25" />
<line x1="92.00" y1="606.00" x2="956.00" y2="606.00" stroke="#49423A" stroke-width="1.2" />
<line x1="92.00" y1="352.00" x2="92.00" y2="606.00" stroke="#49423A" stroke-width="1.2" />
<line x1="166.06" y1="352.00" x2="166.06" y2="606.00" stroke="#F08C3A" stroke-width="1.8" stroke-dasharray="5 4" opacity="0.95" />
<text x="172.06" y="367.00" fill="#E07A27" font-family="Helvetica, Arial, sans-serif" font-size="11">GPU3 overload</text>
<rect x="511.66" y="352.00" width="123.43" height="254.00" fill="#F3E3B5" opacity="0.45" />
<line x1="511.66" y1="352.00" x2="511.66" y2="606.00" stroke="#14A27D" stroke-width="2.2" />
<text x="525.66" y="378.00" fill="#14A27D" font-family="Helvetica, Arial, sans-serif" font-size="12" font-weight="700">REPLAN</text>
<rect x="870.00" y="362.00" width="72.00" height="21.00" fill="#F0ECE3" opacity="0.92" rx="4" ry="4" />
<text x="906.00" y="377.00" fill="#7B746A" font-family="Helvetica, Arial, sans-serif" font-size="11" text-anchor="middle">Batch 128</text>
<path d="M 92.00 620.32 L 104.34 620.32 L 116.69 618.38 L 129.03 614.42 L 141.37 606.85 L 153.71 569.83 L 166.06 532.89 L 178.40 497.90 L 190.74 464.38 L 203.09 434.17 L 215.43 433.71 L 227.77 433.36 L 240.11 432.91 L 252.46 433.00 L 264.80 432.53 L 277.14 432.62 L 289.49 432.06 L 301.83 432.15 L 314.17 431.59 L 326.51 431.78 L 338.86 431.22 L 351.20 430.49 L 363.54 426.75 L 375.89 423.58 L 388.23 418.82 L 400.57 413.63 L 412.91 409.18 L 425.26 407.77 L 437.60 405.76 L 449.94 405.15 L 462.29 401.83 L 474.63 398.50 L 486.97 394.17 L 499.31 390.84 L 511.66 387.52 L 524.00 387.52 L 536.34 387.11 L 548.69 387.05 L 561.03 386.58 L 573.37 386.12 L 585.71 385.65 L 598.06 385.59 L 610.40 385.59 L 622.74 387.61 L 635.09 389.63 L 647.43 391.65 L 659.77 397.71 L 672.11 399.73 L 684.46 399.73 L 696.80 399.73 L 709.14 402.27 L 721.49 400.77 L 733.83 403.31 L 746.17 405.84 L 758.51 409.88 L 770.86 409.88 L 783.20 412.50 L 795.54 415.12 L 807.89 415.12 L 820.23 416.23 L 832.57 413.90 L 844.91 414.95 L 857.26 410.00 L 869.60 407.66 L 881.94 402.71 L 894.29 400.95 L 906.63 393.02 L 918.97 390.76 L 931.31 388.49 L 943.66 386.57 L 956.00 386.41" fill="none" stroke="#4C6A92" stroke-width="1.8" opacity="0.24" />
<path d="M 92.00 610.61 L 104.34 611.93 L 116.69 612.57 L 129.03 611.08 L 141.37 609.20 L 153.71 579.02 L 166.06 547.77 L 178.40 516.27 L 190.74 480.73 L 203.09 445.59 L 215.43 438.57 L 227.77 430.24 L 240.11 422.86 L 252.46 420.47 L 264.80 418.09 L 277.14 415.79 L 289.49 415.89 L 301.83 415.98 L 314.17 416.08 L 326.51 418.17 L 338.86 420.29 L 351.20 422.41 L 363.54 428.95 L 375.89 431.07 L 388.23 431.07 L 400.57 429.00 L 412.91 426.92 L 425.26 419.33 L 437.60 414.91 L 449.94 410.62 L 462.29 409.51 L 474.63 408.41 L 486.97 408.41 L 499.31 421.29 L 511.66 439.34 L 524.00 457.44 L 536.34 477.76 L 548.69 498.08 L 561.03 506.75 L 573.37 510.26 L 585.71 512.27 L 598.06 512.05 L 610.40 510.40 L 622.74 508.74 L 635.09 508.52 L 647.43 507.90 L 659.77 507.28 L 672.11 508.09 L 684.46 508.09 L 696.80 507.18 L 709.14 506.90 L 721.49 506.90 L 733.83 506.69 L 746.17 507.22 L 758.51 506.54 L 770.86 506.54 L 783.20 506.26 L 795.54 506.19 L 807.89 505.60 L 820.23 505.69 L 832.57 505.10 L 844.91 504.52 L 857.26 504.42 L 869.60 505.02 L 881.94 505.51 L 894.29 505.99 L 906.63 506.60 L 918.97 506.72 L 931.31 507.71 L 943.66 508.99 L 956.00 510.28" fill="none" stroke="#C46A2D" stroke-width="1.8" opacity="0.24" />
<path d="M 92.00 616.40 L 104.34 616.40 L 116.69 616.40 L 129.03 616.40 L 141.37 616.40 L 153.71 607.23 L 166.06 588.88 L 178.40 561.35 L 190.74 524.65 L 203.09 487.89 L 215.43 460.22 L 227.77 441.67 L 240.11 432.22 L 252.46 431.88 L 264.80 431.54 L 277.14 431.20 L 289.49 430.85 L 301.83 430.51 L 314.17 430.17 L 326.51 429.83 L 338.86 429.49 L 351.20 429.15 L 363.54 428.80 L 375.89 428.46 L 388.23 428.12 L 400.57 427.78 L 412.91 427.44 L 425.26 427.03 L 437.60 426.56 L 449.94 426.03 L 462.29 425.44 L 474.63 424.78 L 486.97 424.12 L 499.31 423.46 L 511.66 422.81 L 524.00 422.15 L 536.34 421.49 L 548.69 420.83 L 561.03 420.17 L 573.37 419.52 L 585.71 418.86 L 598.06 418.20 L 610.40 417.54 L 622.74 416.88 L 635.09 416.23 L 647.43 415.57 L 659.77 414.91 L 672.11 414.25 L 684.46 413.59 L 696.80 412.94 L 709.14 412.28 L 721.49 411.62 L 733.83 410.96 L 746.17 410.30 L 758.51 409.65 L 770.86 408.99 L 783.20 408.33 L 795.54 407.67 L 807.89 407.01 L 820.23 406.36 L 832.57 405.70 L 844.91 405.04 L 857.26 404.38 L 869.60 403.72 L 881.94 403.07 L 894.29 402.41 L 906.63 401.75 L 918.97 401.09 L 931.31 400.43 L 943.66 399.91 L 956.00 399.51" fill="none" stroke="#4C6A92" stroke-width="3.4" stroke-linecap="round" stroke-linejoin="round" />
<path d="M 92.00 610.84 L 104.34 610.84 L 116.69 610.84 L 129.03 610.84 L 141.37 610.84 L 153.71 601.32 L 166.06 582.29 L 178.40 553.73 L 190.74 515.66 L 203.09 477.57 L 215.43 448.99 L 227.77 429.92 L 240.11 420.36 L 252.46 420.30 L 264.80 420.24 L 277.14 420.19 L 289.49 420.13 L 301.83 420.07 L 314.17 420.01 L 326.51 419.96 L 338.86 419.90 L 351.20 419.84 L 363.54 419.78 L 375.89 419.73 L 388.23 419.67 L 400.57 419.61 L 412.91 419.55 L 425.26 419.50 L 437.60 419.44 L 449.94 419.39 L 462.29 419.36 L 474.63 419.34 L 486.97 419.33 L 499.31 421.07 L 511.66 424.57 L 524.00 429.81 L 536.34 436.80 L 548.69 445.54 L 561.03 454.28 L 573.37 463.02 L 585.71 471.76 L 598.06 480.50 L 610.40 489.24 L 622.74 496.23 L 635.09 501.47 L 647.43 504.97 L 659.77 506.72 L 672.11 506.72 L 684.46 506.72 L 696.80 506.72 L 709.14 506.72 L 721.49 506.72 L 733.83 506.72 L 746.17 506.72 L 758.51 506.72 L 770.86 506.72 L 783.20 506.72 L 795.54 506.72 L 807.89 506.72 L 820.23 506.72 L 832.57 506.72 L 844.91 506.72 L 857.26 506.72 L 869.60 506.72 L 881.94 506.72 L 894.29 506.72 L 906.63 506.72 L 918.97 506.72 L 931.31 506.72 L 943.66 506.72 L 956.00 506.72" fill="none" stroke="#C46A2D" stroke-width="3.4" stroke-linecap="round" stroke-linejoin="round" />
<text x="26.00" y="479.00" fill="#2E2A25" transform="rotate(-90 26 479.00)" font-family="Helvetica, Arial, sans-serif" font-size="12" text-anchor="middle">Norm. compute time</text>
<rect x="92.00" y="624.00" width="864.00" height="254.00" fill="#FCFAF5" />
<line x1="92.00" y1="853.42" x2="956.00" y2="853.42" stroke="#B8AEA1" stroke-width="0.8" stroke-dasharray="3 4" opacity="0.45" />
<text x="80.00" y="857.42" fill="#4D463E" font-family="Helvetica, Arial, sans-serif" font-size="11" text-anchor="end">1.0</text>
<line x1="92.00" y1="812.45" x2="956.00" y2="812.45" stroke="#B8AEA1" stroke-width="0.8" stroke-dasharray="3 4" opacity="0.45" />
<text x="80.00" y="816.45" fill="#4D463E" font-family="Helvetica, Arial, sans-serif" font-size="11" text-anchor="end">1.2</text>
<line x1="92.00" y1="771.48" x2="956.00" y2="771.48" stroke="#B8AEA1" stroke-width="0.8" stroke-dasharray="3 4" opacity="0.45" />
<text x="80.00" y="775.48" fill="#4D463E" font-family="Helvetica, Arial, sans-serif" font-size="11" text-anchor="end">1.4</text>
<line x1="92.00" y1="730.52" x2="956.00" y2="730.52" stroke="#B8AEA1" stroke-width="0.8" stroke-dasharray="3 4" opacity="0.45" />
<text x="80.00" y="734.52" fill="#4D463E" font-family="Helvetica, Arial, sans-serif" font-size="11" text-anchor="end">1.6</text>
<line x1="92.00" y1="689.55" x2="956.00" y2="689.55" stroke="#B8AEA1" stroke-width="0.8" stroke-dasharray="3 4" opacity="0.45" />
<text x="80.00" y="693.55" fill="#4D463E" font-family="Helvetica, Arial, sans-serif" font-size="11" text-anchor="end">1.8</text>
<line x1="92.00" y1="648.58" x2="956.00" y2="648.58" stroke="#B8AEA1" stroke-width="0.8" stroke-dasharray="3 4" opacity="0.45" />
<text x="80.00" y="652.58" fill="#4D463E" font-family="Helvetica, Arial, sans-serif" font-size="11" text-anchor="end">2.0</text>
<line x1="166.06" y1="624.00" x2="166.06" y2="878.00" stroke="#D2C9BD" stroke-width="0.75" opacity="0.25" />
<line x1="289.49" y1="624.00" x2="289.49" y2="878.00" stroke="#D2C9BD" stroke-width="0.75" opacity="0.25" />
<line x1="412.91" y1="624.00" x2="412.91" y2="878.00" stroke="#D2C9BD" stroke-width="0.75" opacity="0.25" />
<line x1="536.34" y1="624.00" x2="536.34" y2="878.00" stroke="#D2C9BD" stroke-width="0.75" opacity="0.25" />
<line x1="659.77" y1="624.00" x2="659.77" y2="878.00" stroke="#D2C9BD" stroke-width="0.75" opacity="0.25" />
<line x1="783.20" y1="624.00" x2="783.20" y2="878.00" stroke="#D2C9BD" stroke-width="0.75" opacity="0.25" />
<line x1="906.63" y1="624.00" x2="906.63" y2="878.00" stroke="#D2C9BD" stroke-width="0.75" opacity="0.25" />
<line x1="92.00" y1="878.00" x2="956.00" y2="878.00" stroke="#49423A" stroke-width="1.2" />
<line x1="92.00" y1="624.00" x2="92.00" y2="878.00" stroke="#49423A" stroke-width="1.2" />
<line x1="166.06" y1="624.00" x2="166.06" y2="878.00" stroke="#F08C3A" stroke-width="1.8" stroke-dasharray="5 4" opacity="0.95" />
<text x="172.06" y="639.00" fill="#E07A27" font-family="Helvetica, Arial, sans-serif" font-size="11">GPU3 overload</text>
<rect x="585.71" y="624.00" width="123.43" height="254.00" fill="#F3E3B5" opacity="0.45" />
<line x1="585.71" y1="624.00" x2="585.71" y2="878.00" stroke="#14A27D" stroke-width="2.2" />
<text x="599.71" y="650.00" fill="#14A27D" font-family="Helvetica, Arial, sans-serif" font-size="12" font-weight="700">REPLAN</text>
<rect x="870.00" y="634.00" width="72.00" height="21.00" fill="#F0ECE3" opacity="0.92" rx="4" ry="4" />
<text x="906.00" y="649.00" fill="#7B746A" font-family="Helvetica, Arial, sans-serif" font-size="11" text-anchor="middle">Batch 256</text>
<path d="M 92.00 864.93 L 104.34 864.81 L 116.69 864.10 L 129.03 847.01 L 141.37 828.97 L 153.71 810.95 L 166.06 793.04 L 178.40 775.46 L 190.74 774.25 L 203.09 773.97 L 215.43 773.68 L 227.77 773.43 L 240.11 773.43 L 252.46 773.43 L 264.80 773.47 L 277.14 773.47 L 289.49 773.36 L 301.83 773.23 L 314.17 773.12 L 326.51 772.98 L 338.86 772.87 L 351.20 772.84 L 363.54 772.84 L 375.89 772.79 L 388.23 772.59 L 400.57 772.25 L 412.91 771.80 L 425.26 771.36 L 437.60 770.92 L 449.94 770.68 L 462.29 770.45 L 474.63 770.45 L 486.97 771.49 L 499.31 772.65 L 511.66 774.11 L 524.00 775.71 L 536.34 777.17 L 548.69 777.17 L 561.03 777.47 L 573.37 777.97 L 585.71 777.97 L 598.06 777.87 L 610.40 778.19 L 622.74 778.09 L 635.09 777.50 L 647.43 778.14 L 659.77 778.89 L 672.11 779.44 L 684.46 780.00 L 696.80 780.62 L 709.14 780.50 L 721.49 780.38 L 733.83 780.40 L 746.17 780.47 L 758.51 780.43 L 770.86 780.43 L 783.20 780.43 L 795.54 780.43 L 807.89 779.78 L 820.23 779.18 L 832.57 778.54 L 844.91 777.89 L 857.26 777.25 L 869.60 777.22 L 881.94 777.14 L 894.29 777.07 L 906.63 776.99 L 918.97 776.94 L 931.31 776.81 L 943.66 776.70 L 956.00 776.59" fill="none" stroke="#4C6A92" stroke-width="1.8" opacity="0.24" />
<path d="M 92.00 866.39 L 104.34 866.30 L 116.69 866.05 L 129.03 865.73 L 141.37 865.30 L 153.71 818.44 L 166.06 771.04 L 178.40 723.89 L 190.74 676.64 L 203.09 629.49 L 215.43 628.77 L 227.77 628.61 L 240.11 628.44 L 252.46 628.44 L 264.80 628.44 L 277.14 628.38 L 289.49 628.24 L 301.83 627.87 L 314.17 627.81 L 326.51 627.74 L 338.86 627.74 L 351.20 627.33 L 363.54 627.16 L 375.89 626.79 L 388.23 626.43 L 400.57 626.48 L 412.91 627.03 L 425.26 627.57 L 437.60 628.01 L 449.94 628.43 L 462.29 628.43 L 474.63 628.44 L 486.97 628.45 L 499.31 628.45 L 511.66 628.20 L 524.00 628.25 L 536.34 628.30 L 548.69 628.34 L 561.03 628.38 L 573.37 629.27 L 585.71 650.85 L 598.06 681.51 L 610.40 712.27 L 622.74 744.11 L 635.09 775.43 L 647.43 785.84 L 659.77 787.29 L 672.11 788.63 L 684.46 788.89 L 696.80 789.14 L 709.14 789.25 L 721.49 789.31 L 733.83 789.43 L 746.17 789.85 L 758.51 790.21 L 770.86 790.40 L 783.20 790.54 L 795.54 790.62 L 807.89 790.42 L 820.23 790.23 L 832.57 790.25 L 844.91 790.28 L 857.26 790.30 L 869.60 791.01 L 881.94 791.73 L 894.29 792.54 L 906.63 793.25 L 918.97 794.07 L 931.31 794.39 L 943.66 794.70 L 956.00 794.71" fill="none" stroke="#C46A2D" stroke-width="1.8" opacity="0.24" />
<path d="M 92.00 855.56 L 104.34 855.56 L 116.69 855.56 L 129.03 855.56 L 141.37 855.56 L 153.71 851.45 L 166.06 843.24 L 178.40 830.92 L 190.74 814.49 L 203.09 798.06 L 215.43 785.73 L 227.77 777.50 L 240.11 773.37 L 252.46 773.33 L 264.80 773.30 L 277.14 773.27 L 289.49 773.23 L 301.83 773.20 L 314.17 773.17 L 326.51 773.13 L 338.86 773.10 L 351.20 773.07 L 363.54 773.04 L 375.89 773.00 L 388.23 772.97 L 400.57 772.94 L 412.91 772.90 L 425.26 772.90 L 437.60 772.93 L 449.94 772.99 L 462.29 773.08 L 474.63 773.20 L 486.97 773.32 L 499.31 773.44 L 511.66 773.56 L 524.00 773.68 L 536.34 773.80 L 548.69 773.92 L 561.03 774.04 L 573.37 774.16 L 585.71 774.28 L 598.06 774.40 L 610.40 774.52 L 622.74 774.64 L 635.09 774.76 L 647.43 774.88 L 659.77 775.00 L 672.11 775.12 L 684.46 775.24 L 696.80 775.36 L 709.14 775.48 L 721.49 775.60 L 733.83 775.72 L 746.17 775.84 L 758.51 775.96 L 770.86 776.08 L 783.20 776.20 L 795.54 776.32 L 807.89 776.44 L 820.23 776.56 L 832.57 776.68 L 844.91 776.80 L 857.26 776.92 L 869.60 777.04 L 881.94 777.16 L 894.29 777.28 L 906.63 777.40 L 918.97 777.52 L 931.31 777.64 L 943.66 777.74 L 956.00 777.81" fill="none" stroke="#4C6A92" stroke-width="3.4" stroke-linecap="round" stroke-linejoin="round" />
<path d="M 92.00 865.89 L 104.34 865.89 L 116.69 865.89 L 129.03 865.89 L 141.37 865.89 L 153.71 854.02 L 166.06 830.27 L 178.40 794.65 L 190.74 747.16 L 203.09 699.67 L 215.43 664.05 L 227.77 640.31 L 240.11 628.43 L 252.46 628.43 L 264.80 628.43 L 277.14 628.43 L 289.49 628.43 L 301.83 628.42 L 314.17 628.42 L 326.51 628.42 L 338.86 628.42 L 351.20 628.41 L 363.54 628.41 L 375.89 628.41 L 388.23 628.41 L 400.57 628.41 L 412.91 628.40 L 425.26 628.40 L 437.60 628.40 L 449.94 628.40 L 462.29 628.40 L 474.63 628.39 L 486.97 628.39 L 499.31 628.39 L 511.66 628.39 L 524.00 628.39 L 536.34 628.38 L 548.69 628.38 L 561.03 628.38 L 573.37 631.62 L 585.71 638.10 L 598.06 647.83 L 610.40 660.79 L 622.74 676.99 L 635.09 693.19 L 647.43 709.39 L 659.77 725.59 L 672.11 741.80 L 684.46 758.00 L 696.80 770.96 L 709.14 780.68 L 721.49 787.16 L 733.83 790.40 L 746.17 790.40 L 758.51 790.40 L 770.86 790.40 L 783.20 790.40 L 795.54 790.40 L 807.89 790.40 L 820.23 790.40 L 832.57 790.40 L 844.91 790.40 L 857.26 790.40 L 869.60 790.40 L 881.94 790.40 L 894.29 790.40 L 906.63 790.40 L 918.97 790.40 L 931.31 790.40 L 943.66 790.40 L 956.00 790.40" fill="none" stroke="#C46A2D" stroke-width="3.4" stroke-linecap="round" stroke-linejoin="round" />
<text x="26.00" y="751.00" fill="#2E2A25" transform="rotate(-90 26 751.00)" font-family="Helvetica, Arial, sans-serif" font-size="12" text-anchor="middle">Norm. compute time</text>
<rect x="92.00" y="896.00" width="864.00" height="254.00" fill="#FCFAF5" />
<line x1="92.00" y1="1125.42" x2="956.00" y2="1125.42" stroke="#B8AEA1" stroke-width="0.8" stroke-dasharray="3 4" opacity="0.45" />
<text x="80.00" y="1129.42" fill="#4D463E" font-family="Helvetica, Arial, sans-serif" font-size="11" text-anchor="end">1.0</text>
<line x1="92.00" y1="1084.45" x2="956.00" y2="1084.45" stroke="#B8AEA1" stroke-width="0.8" stroke-dasharray="3 4" opacity="0.45" />
<text x="80.00" y="1088.45" fill="#4D463E" font-family="Helvetica, Arial, sans-serif" font-size="11" text-anchor="end">1.2</text>
<line x1="92.00" y1="1043.48" x2="956.00" y2="1043.48" stroke="#B8AEA1" stroke-width="0.8" stroke-dasharray="3 4" opacity="0.45" />
<text x="80.00" y="1047.48" fill="#4D463E" font-family="Helvetica, Arial, sans-serif" font-size="11" text-anchor="end">1.4</text>
<line x1="92.00" y1="1002.52" x2="956.00" y2="1002.52" stroke="#B8AEA1" stroke-width="0.8" stroke-dasharray="3 4" opacity="0.45" />
<text x="80.00" y="1006.52" fill="#4D463E" font-family="Helvetica, Arial, sans-serif" font-size="11" text-anchor="end">1.6</text>
<line x1="92.00" y1="961.55" x2="956.00" y2="961.55" stroke="#B8AEA1" stroke-width="0.8" stroke-dasharray="3 4" opacity="0.45" />
<text x="80.00" y="965.55" fill="#4D463E" font-family="Helvetica, Arial, sans-serif" font-size="11" text-anchor="end">1.8</text>
<line x1="92.00" y1="920.58" x2="956.00" y2="920.58" stroke="#B8AEA1" stroke-width="0.8" stroke-dasharray="3 4" opacity="0.45" />
<text x="80.00" y="924.58" fill="#4D463E" font-family="Helvetica, Arial, sans-serif" font-size="11" text-anchor="end">2.0</text>
<line x1="166.06" y1="896.00" x2="166.06" y2="1150.00" stroke="#D2C9BD" stroke-width="0.75" opacity="0.25" />
<text x="166.06" y="1168.00" fill="#4D463E" font-family="Helvetica, Arial, sans-serif" font-size="11" text-anchor="middle">0</text>
<line x1="289.49" y1="896.00" x2="289.49" y2="1150.00" stroke="#D2C9BD" stroke-width="0.75" opacity="0.25" />
<text x="289.49" y="1168.00" fill="#4D463E" font-family="Helvetica, Arial, sans-serif" font-size="11" text-anchor="middle">10</text>
<line x1="412.91" y1="896.00" x2="412.91" y2="1150.00" stroke="#D2C9BD" stroke-width="0.75" opacity="0.25" />
<text x="412.91" y="1168.00" fill="#4D463E" font-family="Helvetica, Arial, sans-serif" font-size="11" text-anchor="middle">20</text>
<line x1="536.34" y1="896.00" x2="536.34" y2="1150.00" stroke="#D2C9BD" stroke-width="0.75" opacity="0.25" />
<text x="536.34" y="1168.00" fill="#4D463E" font-family="Helvetica, Arial, sans-serif" font-size="11" text-anchor="middle">30</text>
<line x1="659.77" y1="896.00" x2="659.77" y2="1150.00" stroke="#D2C9BD" stroke-width="0.75" opacity="0.25" />
<text x="659.77" y="1168.00" fill="#4D463E" font-family="Helvetica, Arial, sans-serif" font-size="11" text-anchor="middle">40</text>
<line x1="783.20" y1="896.00" x2="783.20" y2="1150.00" stroke="#D2C9BD" stroke-width="0.75" opacity="0.25" />
<text x="783.20" y="1168.00" fill="#4D463E" font-family="Helvetica, Arial, sans-serif" font-size="11" text-anchor="middle">50</text>
<line x1="906.63" y1="896.00" x2="906.63" y2="1150.00" stroke="#D2C9BD" stroke-width="0.75" opacity="0.25" />
<text x="906.63" y="1168.00" fill="#4D463E" font-family="Helvetica, Arial, sans-serif" font-size="11" text-anchor="middle">60</text>
<line x1="92.00" y1="1150.00" x2="956.00" y2="1150.00" stroke="#49423A" stroke-width="1.2" />
<line x1="92.00" y1="896.00" x2="92.00" y2="1150.00" stroke="#49423A" stroke-width="1.2" />
<line x1="166.06" y1="896.00" x2="166.06" y2="1150.00" stroke="#F08C3A" stroke-width="1.8" stroke-dasharray="5 4" opacity="0.95" />
<text x="172.06" y="911.00" fill="#E07A27" font-family="Helvetica, Arial, sans-serif" font-size="11">GPU3 overload</text>
<rect x="684.46" y="896.00" width="123.43" height="254.00" fill="#F3E3B5" opacity="0.45" />
<line x1="684.46" y1="896.00" x2="684.46" y2="1150.00" stroke="#14A27D" stroke-width="2.2" />
<text x="698.46" y="922.00" fill="#14A27D" font-family="Helvetica, Arial, sans-serif" font-size="12" font-weight="700">REPLAN</text>
<rect x="870.00" y="906.00" width="72.00" height="21.00" fill="#F0ECE3" opacity="0.92" rx="4" ry="4" />
<text x="906.00" y="921.00" fill="#7B746A" font-family="Helvetica, Arial, sans-serif" font-size="11" text-anchor="middle">Batch 512</text>
<path d="M 92.00 1129.39 L 104.34 1129.31 L 116.69 1129.15 L 129.03 1128.97 L 141.37 1128.74 L 153.71 1108.13 L 166.06 1087.24 L 178.40 1066.33 L 190.74 1045.28 L 203.09 1024.23 L 215.43 1023.56 L 227.77 1023.25 L 240.11 1023.07 L 252.46 1023.04 L 264.80 1023.05 L 277.14 1023.07 L 289.49 1023.19 L 301.83 1023.31 L 314.17 1023.51 L 326.51 1023.71 L 338.86 1023.91 L 351.20 1024.00 L 363.54 1024.09 L 375.89 1024.09 L 388.23 1024.25 L 400.57 1024.53 L 412.91 1024.81 L 425.26 1025.07 L 437.60 1025.50 L 449.94 1025.61 L 462.29 1025.59 L 474.63 1025.57 L 486.97 1025.44 L 499.31 1025.15 L 511.66 1024.95 L 524.00 1024.74 L 536.34 1024.52 L 548.69 1024.37 L 561.03 1024.21 L 573.37 1024.13 L 585.71 1024.13 L 598.06 1024.61 L 610.40 1024.68 L 622.74 1024.68 L 635.09 1024.68 L 647.43 1024.61 L 659.77 1024.04 L 672.11 1023.96 L 684.46 1023.88 L 696.80 1023.78 L 709.14 1023.67 L 721.49 1023.59 L 733.83 1023.50 L 746.17 1023.49 L 758.51 1023.49 L 770.86 1023.49 L 783.20 1023.49 L 795.54 1023.50 L 807.89 1023.50 L 820.23 1023.54 L 832.57 1023.48 L 844.91 1023.42 L 857.26 1023.35 L 869.60 1023.42 L 881.94 1023.45 L 894.29 1023.59 L 906.63 1023.67 L 918.97 1023.81 L 931.31 1023.75 L 943.66 1023.69 L 956.00 1023.63" fill="none" stroke="#4C6A92" stroke-width="1.8" opacity="0.24" />
<path d="M 92.00 1154.99 L 104.34 1155.17 L 116.69 1155.30 L 129.03 1154.20 L 141.37 1152.94 L 153.71 1109.54 L 166.06 1066.12 L 178.40 1022.88 L 190.74 980.48 L 203.09 938.09 L 215.43 937.77 L 227.77 936.99 L 240.11 935.94 L 252.46 935.03 L 264.80 934.00 L 277.14 933.02 L 289.49 932.23 L 301.83 931.71 L 314.17 931.31 L 326.51 931.04 L 338.86 930.69 L 351.20 930.69 L 363.54 930.69 L 375.89 930.69 L 388.23 930.68 L 400.57 930.72 L 412.91 930.70 L 425.26 930.71 L 437.60 930.72 L 449.94 930.79 L 462.29 930.82 L 474.63 930.84 L 486.97 930.84 L 499.31 930.84 L 511.66 930.79 L 524.00 930.74 L 536.34 930.67 L 548.69 929.68 L 561.03 928.70 L 573.37 927.71 L 585.71 927.69 L 598.06 927.87 L 610.40 928.97 L 622.74 930.06 L 635.09 931.36 L 647.43 932.31 L 659.77 933.40 L 672.11 956.70 L 684.46 991.58 L 696.80 1026.46 L 709.14 1060.83 L 721.49 1094.94 L 733.83 1106.89 L 746.17 1107.51 L 758.51 1107.93 L 770.86 1108.34 L 783.20 1108.73 L 795.54 1109.08 L 807.89 1109.46 L 820.23 1109.56 L 832.57 1109.62 L 844.91 1109.62 L 857.26 1109.62 L 869.60 1108.92 L 881.94 1108.49 L 894.29 1107.97 L 906.63 1107.39 L 918.97 1106.81 L 931.31 1106.72 L 943.66 1106.64 L 956.00 1106.95" fill="none" stroke="#C46A2D" stroke-width="1.8" opacity="0.24" />
<path d="M 92.00 1129.06 L 104.34 1129.06 L 116.69 1129.06 L 129.03 1129.06 L 141.37 1129.06 L 153.71 1123.76 L 166.06 1113.16 L 178.40 1097.26 L 190.74 1076.06 L 203.09 1054.88 L 215.43 1039.00 L 227.77 1028.44 L 240.11 1023.18 L 252.46 1023.24 L 264.80 1023.30 L 277.14 1023.35 L 289.49 1023.41 L 301.83 1023.47 L 314.17 1023.52 L 326.51 1023.58 L 338.86 1023.64 L 351.20 1023.70 L 363.54 1023.75 L 375.89 1023.81 L 388.23 1023.87 L 400.57 1023.92 L 412.91 1023.98 L 425.26 1024.03 L 437.60 1024.06 L 449.94 1024.07 L 462.29 1024.08 L 474.63 1024.07 L 486.97 1024.07 L 499.31 1024.06 L 511.66 1024.05 L 524.00 1024.04 L 536.34 1024.04 L 548.69 1024.03 L 561.03 1024.02 L 573.37 1024.02 L 585.71 1024.01 L 598.06 1024.00 L 610.40 1024.00 L 622.74 1023.99 L 635.09 1023.98 L 647.43 1023.97 L 659.77 1023.97 L 672.11 1023.96 L 684.46 1023.95 L 696.80 1023.95 L 709.14 1023.94 L 721.49 1023.93 L 733.83 1023.92 L 746.17 1023.92 L 758.51 1023.91 L 770.86 1023.90 L 783.20 1023.90 L 795.54 1023.89 L 807.89 1023.88 L 820.23 1023.87 L 832.57 1023.87 L 844.91 1023.86 L 857.26 1023.85 L 869.60 1023.85 L 881.94 1023.84 L 894.29 1023.83 L 906.63 1023.82 L 918.97 1023.82 L 931.31 1023.81 L 943.66 1023.80 L 956.00 1023.80" fill="none" stroke="#4C6A92" stroke-width="3.4" stroke-linecap="round" stroke-linejoin="round" />
<path d="M 92.00 1154.59 L 104.34 1154.59 L 116.69 1154.59 L 129.03 1154.59 L 141.37 1154.59 L 153.71 1143.62 L 166.06 1121.66 L 178.40 1088.72 L 190.74 1044.81 L 203.09 1000.87 L 215.43 967.87 L 227.77 945.82 L 240.11 934.71 L 252.46 934.56 L 264.80 934.40 L 277.14 934.24 L 289.49 934.08 L 301.83 933.93 L 314.17 933.77 L 326.51 933.61 L 338.86 933.46 L 351.20 933.30 L 363.54 933.14 L 375.89 932.98 L 388.23 932.83 L 400.57 932.67 L 412.91 932.51 L 425.26 932.36 L 437.60 932.20 L 449.94 932.04 L 462.29 931.88 L 474.63 931.73 L 486.97 931.57 L 499.31 931.41 L 511.66 931.25 L 524.00 931.10 L 536.34 930.94 L 548.69 930.78 L 561.03 930.63 L 573.37 930.47 L 585.71 930.31 L 598.06 930.15 L 610.40 930.00 L 622.74 929.87 L 635.09 929.78 L 647.43 929.71 L 659.77 929.68 L 672.11 933.26 L 684.46 940.43 L 696.80 951.17 L 709.14 965.49 L 721.49 983.40 L 733.83 1001.30 L 746.17 1019.21 L 758.51 1037.11 L 770.86 1055.02 L 783.20 1072.92 L 795.54 1087.25 L 807.89 1097.99 L 820.23 1105.15 L 832.57 1108.73 L 844.91 1108.73 L 857.26 1108.73 L 869.60 1108.73 L 881.94 1108.73 L 894.29 1108.73 L 906.63 1108.73 L 918.97 1108.73 L 931.31 1108.73 L 943.66 1108.73 L 956.00 1108.73" fill="none" stroke="#C46A2D" stroke-width="3.4" stroke-linecap="round" stroke-linejoin="round" />
<text x="26.00" y="1023.00" fill="#2E2A25" transform="rotate(-90 26 1023.00)" font-family="Helvetica, Arial, sans-serif" font-size="12" text-anchor="middle">Norm. compute time</text>
<text x="524.00" y="1200.00" fill="#2E2A25" font-family="Helvetica, Arial, sans-serif" font-size="13" text-anchor="middle">Steps from overload onset</text>
</svg>