<svg xmlns="http://www.w3.org/2000/svg" width="980" height="1220" viewBox="0 0 980 1220">
<rect x="0.00" y="0.00" width="980.00" height="1220.00" fill="#FCFAF5" />
<text x="490.00" y="38.00" fill="#222222" font-family="Helvetica, Arial, sans-serif" font-size="17" font-weight="700" text-anchor="middle">Recovery Dynamics Under Sustained GPU-3 Overload</text>
<text x="490.00" y="58.00" fill="#5A5248" font-family="Helvetica, Arial, sans-serif" font-size="11" text-anchor="middle">Bold curves emphasize the shared overload regime and REPLAN recovery; faint curves show the measured traces.</text>
<line x1="760.00" y1="88.00" x2="794.00" y2="88.00" stroke="#4C6A92" stroke-width="3.3" />
<text x="802.00" y="92.00" fill="#2B2B2B" font-family="Helvetica, Arial, sans-serif" font-size="12">TSPipe baseline</text>
<line x1="760.00" y1="110.00" x2="794.00" y2="110.00" stroke="#C46A2D" stroke-width="3.3" />
<text x="802.00" y="114.00" fill="#2B2B2B" font-family="Helvetica, Arial, sans-serif" font-size="12">Failover + REPLAN</text>
<rect x="92.00" y="80.00" width="864.00" height="254.00" fill="#FCFAF5" />
<line x1="92.00" y1="309.42" x2="956.00" y2="309.42" stroke="#B8AEA1" stroke-width="0.8" stroke-dasharray="3 4" opacity="0.45" />
<text x="80.00" y="313.42" fill="#4D463E" font-family="Helvetica, Arial, sans-serif" font-size="11" text-anchor="end">1.0</text>
<line x1="92.00" y1="268.45" x2="956.00" y2="268.45" stroke="#B8AEA1" stroke-width="0.8" stroke-dasharray="3 4" opacity="0.45" />
<text x="80.00" y="272.45" fill="#4D463E" font-family="Helvetica, Arial, sans-serif" font-size="11" text-anchor="end">1.2</text>
<line x1="92.00" y1="227.48" x2="956.00" y2="227.48" stroke="#B8AEA1" stroke-width="0.8" stroke-dasharray="3 4" opacity="0.45" />
<text x="80.00" y="231.48" fill="#4D463E" font-family="Helvetica, Arial, sans-serif" font-size="11" text-anchor="end">1.4</text>
<line x1="92.00" y1="186.52" x2="956.00" y2="186.52" stroke="#B8AEA1" stroke-width="0.8" stroke-dasharray="3 4" opacity="0.45" />
<text x="80.00" y="190.52" fill="#4D463E" font-family="Helvetica, Arial, sans-serif" font-size="11" text-anchor="end">1.6</text>
<line x1="92.00" y1="145.55" x2="956.00" y2="145.55" stroke="#B8AEA1" stroke-width="0.8" stroke-dasharray="3 4" opacity="0.45" />
<text x="80.00" y="149.55" fill="#4D463E" font-family="Helvetica, Arial, sans-serif" font-size="11" text-anchor="end">1.8</text>
<line x1="92.00" y1="104.58" x2="956.00" y2="104.58" stroke="#B8AEA1" stroke-width="0.8" stroke-dasharray="3 4" opacity="0.45" />
<text x="80.00" y="108.58" fill="#4D463E" font-family="Helvetica, Arial, sans-serif" font-size="11" text-anchor="end">2.0</text>
<line x1="136.69" y1="80.00" x2="136.69" y2="334.00" stroke="#D2C9BD" stroke-width="0.75" opacity="0.25" />
<line x1="211.17" y1="80.00" x2="211.17" y2="334.00" stroke="#D2C9BD" stroke-width="0.75" opacity="0.25" />
<line x1="285.66" y1="80.00" x2="285.66" y2="334.00" stroke="#D2C9BD" stroke-width="0.75" opacity="0.25" />
<line x1="360.14" y1="80.00" x2="360.14" y2="334.00" stroke="#D2C9BD" stroke-width="0.75" opacity="0.25" />
<line x1="434.62" y1="80.00" x2="434.62" y2="334.00" stroke="#D2C9BD" stroke-width="0.75" opacity="0.25" />
<line x1="509.10" y1="80.00" x2="509.10" y2="334.00" stroke="#D2C9BD" stroke-width="0.75" opacity="0.25" />
<line x1="583.59" y1="80.00" x2="583.59" y2="334.00" stroke="#D2C9BD" stroke-width="0.75" opacity="0.25" />
<line x1="658.07" y1="80.00" x2="658.07" y2="334.00" stroke="#D2C9BD" stroke-width="0.75" opacity="0.25" />
<line x1="732.55" y1="80.00" x2="732.55" y2="334.00" stroke="#D2C9BD" stroke-width="0.75" opacity="0.25" />
<line x1="807.03" y1="80.00" x2="807.03" y2="334.00" stroke="#D2C9BD" stroke-width="0.75" opacity="0.25" />
<line x1="881.52" y1="80.00" x2="881.52" y2="334.00" stroke="#D2C9BD" stroke-width="0.75" opacity="0.25" />
<line x1="956.00" y1="80.00" x2="956.00" y2="334.00" stroke="#D2C9BD" stroke-width="0.75" opacity="0.25" />
<line x1="92.00" y1="334.00" x2="956.00" y2="334.00" stroke="#49423A" stroke-width="1.2" />
<line x1="92.00" y1="80.00" x2="92.00" y2="334.00" stroke="#49423A" stroke-width="1.2" />
<line x1="136.69" y1="80.00" x2="136.69" y2="334.00" stroke="#F08C3A" stroke-width="1.8" stroke-dasharray="5 4" opacity="0.95" />
<text x="142.69" y="95.00" fill="#E07A27" font-family="Helvetica, Arial, sans-serif" font-size="11">GPU3 overload</text>
<rect x="807.03" y="80.00" width="74.48" height="254.00" fill="#F3E3B5" opacity="0.45" />
<line x1="807.03" y1="80.00" x2="807.03" y2="334.00" stroke="#14A27D" stroke-width="2.2" />
<text x="821.03" y="106.00" fill="#14A27D" font-family="Helvetica, Arial, sans-serif" font-size="12" font-weight="700">REPLAN</text>
<rect x="870.00" y="90.00" width="72.00" height="21.00" fill="#F0ECE3" opacity="0.92" rx="4" ry="4" />
<text x="906.00" y="105.00" fill="#7B746A" font-family="Helvetica, Arial, sans-serif" font-size="11" text-anchor="middle">Batch 64</text>
<path d="M 92.00 363.13 L 99.45 363.91 L 106.90 363.91 L 114.34 362.47 L 121.79 347.99 L 129.24 319.44 L 136.69 284.80 L 144.14 249.21 L 151.59 215.06 L 159.03 193.95 L 166.48 186.90 L 173.93 185.53 L 181.38 185.12 L 188.83 184.70 L 196.28 184.29 L 203.72 183.87 L 211.17 183.63 L 218.62 183.38 L 226.07 182.45 L 233.52 182.20 L 240.97 182.11 L 248.41 182.26 L 255.86 182.40 L 263.31 183.44 L 270.76 183.78 L 278.21 183.97 L 285.66 184.16 L 293.10 184.35 L 300.55 184.35 L 308.00 184.35 L 315.45 186.39 L 322.90 188.42 L 330.34 189.19 L 337.79 191.23 L 345.24 193.26 L 352.69 193.26 L 360.14 193.26 L 367.59 193.26 L 375.03 191.99 L 382.48 190.72 L 389.93 189.46 L 397.38 186.67 L 404.83 185.14 L 412.28 183.62 L 419.72 182.10 L 427.17 180.58 L 434.62 179.82 L 442.07 179.05 L 449.52 178.29 L 456.97 177.53 L 464.41 176.75 L 471.86 176.73 L 479.31 176.71 L 486.76 179.26 L 494.21 181.81 L 501.66 186.99 L 509.10 189.56 L 516.55 192.14 L 524.00 192.08 L 531.45 192.08 L 538.90 189.42 L 546.34 189.37 L 553.79 188.19 L 561.24 187.06 L 568.69 184.23 L 576.14 181.46 L 583.59 178.69 L 591.03 176.70 L 598.48 174.70 L 605.93 173.84 L 613.38 173.49 L 620.83 178.16 L 628.28 183.17 L 635.72 188.18 L 643.17 189.41 L 650.62 188.69 L 658.07 181.44 L 665.52 174.19 L 672.97 169.73 L 680.41 169.58 L 687.86 167.19 L 695.31 169.99 L 702.76 172.31 L 710.21 171.84 L 717.66 171.84 L 725.10 175.50 L 732.55 175.03 L 740.00 175.03 L 747.45 175.03 L 754.90 174.55 L 762.34 174.07 L 769.79 176.10 L 777.24 178.13 L 784.69 180.15 L 792.14 182.68 L 799.59 186.21 L 807.03 187.71 L 814.48 190.48 L 821.93 193.24 L 829.38 195.51 L 836.83 196.78 L 844.28 198.61 L 851.72 198.61 L 859.17 194.66 L 866.62 190.70 L 874.07 186.27 L 881.52 180.95 L 888.97 175.46 L 896.41 172.95 L 903.86 170.43 L 911.31 168.38 L 918.76 167.45 L 926.21 167.45 L 933.66 168.44 L 941.10 169.23 L 948.55 171.48 L 956.00 174.89" fill="none" stroke="#4C6A92" stroke-width="1.5" opacity="0.16" />
<path d="M 92.00 344.60 L 99.45 344.52 L 106.90 344.32 L 114.34 341.29 L 121.79 337.59 L 129.24 304.57 L 136.69 270.38 L 144.14 235.19 L 151.59 202.18 L 159.03 169.82 L 166.48 166.86 L 173.93 165.06 L 181.38 164.32 L 188.83 163.73 L 196.28 163.68 L 203.72 162.65 L 211.17 162.81 L 218.62 163.31 L 226.07 163.81 L 233.52 164.02 L 240.97 164.21 L 248.41 164.21 L 255.86 162.92 L 263.31 161.63 L 270.76 161.63 L 278.21 162.63 L 285.66 161.63 L 293.10 161.63 L 300.55 161.59 L 308.00 160.56 L 315.45 159.52 L 322.90 159.49 L 330.34 159.45 L 337.79 159.45 L 345.24 159.43 L 352.69 159.43 L 360.14 158.21 L 367.59 158.01 L 375.03 157.81 L 382.48 157.61 L 389.93 156.40 L 397.38 157.42 L 404.83 156.40 L 412.28 155.38 L 419.72 155.37 L 427.17 156.38 L 434.62 156.71 L 442.07 158.16 L 449.52 159.61 L 456.97 160.06 L 464.41 160.49 L 471.86 160.87 L 479.31 161.15 L 486.76 161.44 L 494.21 161.72 L 501.66 161.52 L 509.10 157.82 L 516.55 151.16 L 524.00 144.50 L 531.45 137.83 L 538.90 131.64 L 546.34 128.68 L 553.79 128.68 L 561.24 128.68 L 568.69 131.24 L 576.14 135.08 L 583.59 139.02 L 591.03 142.86 L 598.48 146.80 L 605.93 148.68 L 613.38 148.78 L 620.83 148.78 L 628.28 149.37 L 635.72 149.87 L 643.17 149.87 L 650.62 150.37 L 658.07 150.87 L 665.52 151.55 L 672.97 152.24 L 680.41 152.92 L 687.86 154.51 L 695.31 155.19 L 702.76 156.09 L 710.21 156.99 L 717.66 158.15 L 725.10 158.46 L 732.55 159.62 L 740.00 159.88 L 747.45 160.13 L 754.90 160.13 L 762.34 160.08 L 769.79 159.29 L 777.24 159.72 L 784.69 158.93 L 792.14 158.14 L 799.59 158.75 L 807.03 163.56 L 814.48 167.83 L 821.93 177.65 L 829.38 189.04 L 836.83 199.04 L 844.28 204.05 L 851.72 208.59 L 859.17 210.17 L 866.62 210.17 L 874.07 210.04 L 881.52 210.26 L 888.97 210.26 L 896.41 208.89 L 903.86 208.76 L 911.31 208.76 L 918.76 211.93 L 926.21 213.17 L 933.66 214.01 L 941.10 210.17 L 948.55 206.33 L 956.00 201.21" fill="none" stroke="#C46A2D" stroke-width="1.5" opacity="0.16" />
<path d="M 92.00 362.80 L 99.45 362.80 L 106.90 362.80 L 114.34 362.80 L 121.79 362.80 L 129.24 353.37 L 136.69 334.51 L 144.14 306.22 L 151.59 268.51 L 159.03 230.75 L 166.48 202.39 L 173.93 183.42 L 181.38 173.83 L 188.83 173.64 L 196.28 173.45 L 203.72 173.26 L 211.17 173.07 L 218.62 172.88 L 226.07 172.69 L 233.52 172.50 L 240.97 172.31 L 248.41 172.12 L 255.86 171.93 L 263.31 171.74 L 270.76 171.55 L 278.21 171.36 L 285.66 171.17 L 293.10 171.04 L 300.55 170.98 L 308.00 170.98 L 315.45 171.03 L 322.90 171.16 L 330.34 171.28 L 337.79 171.40 L 345.24 171.52 L 352.69 171.64 L 360.14 171.76 L 367.59 171.88 L 375.03 172.00 L 382.48 172.12 L 389.93 172.25 L 397.38 172.37 L 404.83 172.49 L 412.28 172.61 L 419.72 172.73 L 427.17 172.85 L 434.62 172.97 L 442.07 173.09 L 449.52 173.21 L 456.97 173.34 L 464.41 173.46 L 471.86 173.58 L 479.31 173.70 L 486.76 173.82 L 494.21 173.94 L 501.66 174.06 L 509.10 174.18 L 516.55 174.30 L 524.00 174.43 L 531.45 174.55 L 538.90 174.67 L 546.34 174.79 L 553.79 174.91 L 561.24 175.03 L 568.69 175.15 L 576.14 175.27 L 583.59 175.39 L 591.03 175.52 L 598.48 175.64 L 605.93 175.76 L 613.38 175.88 L 620.83 176.00 L 628.28 176.12 L 635.72 176.24 L 643.17 176.36 L 650.62 176.48 L 658.07 176.61 L 665.52 176.73 L 672.97 176.85 L 680.41 176.97 L 687.86 177.09 L 695.31 177.21 L 702.76 177.33 L 710.21 177.45 L 717.66 177.57 L 725.10 177.70 L 732.55 177.82 L 740.00 177.94 L 747.45 178.06 L 754.90 178.18 L 762.34 178.30 L 769.79 178.42 L 777.24 178.54 L 784.69 178.66 L 792.14 178.79 L 799.59 178.91 L 807.03 179.03 L 814.48 179.15 L 821.93 179.27 L 829.38 179.39 L 836.83 179.51 L 844.28 179.63 L 851.72 179.75 L 859.17 179.88 L 866.62 180.00 L 874.07 180.12 L 881.52 180.24 L 888.97 180.36 L 896.41 180.48 L 903.86 180.60 L 911.31 180.72 L 918.76 180.85 L 926.21 180.97 L 933.66 181.09 L 941.10 181.21 L 948.55 181.31 L 956.00 181.38" fill="none" stroke="#4C6A92" stroke-width="3.4" stroke-linecap="round" stroke-linejoin="round" />
<path d="M 92.00 342.81 L 99.45 342.81 L 106.90 342.81 L 114.34 342.81 L 121.79 342.81 L 129.24 334.38 L 136.69 317.52 L 144.14 292.23 L 151.59 258.51 L 159.03 224.78 L 166.48 199.48 L 173.93 182.59 L 181.38 174.13 L 188.83 174.09 L 196.28 174.05 L 203.72 174.01 L 211.17 173.96 L 218.62 173.92 L 226.07 173.88 L 233.52 173.84 L 240.97 173.80 L 248.41 173.76 L 255.86 173.71 L 263.31 173.67 L 270.76 173.63 L 278.21 173.59 L 285.66 173.55 L 293.10 173.51 L 300.55 173.46 L 308.00 173.42 L 315.45 173.38 L 322.90 173.34 L 330.34 173.30 L 337.79 173.25 L 345.24 173.21 L 352.69 173.17 L 360.14 173.13 L 367.59 173.09 L 375.03 173.05 L 382.48 173.00 L 389.93 172.96 L 397.38 172.92 L 404.83 172.88 L 412.28 172.84 L 419.72 172.80 L 427.17 172.75 L 434.62 172.71 L 442.07 172.67 L 449.52 172.63 L 456.97 172.59 L 464.41 172.55 L 471.86 172.50 L 479.31 172.46 L 486.76 172.42 L 494.21 172.38 L 501.66 172.34 L 509.10 172.29 L 516.55 172.25 L 524.00 172.21 L 531.45 172.17 L 538.90 172.13 L 546.34 172.09 L 553.79 172.04 L 561.24 172.00 L 568.69 171.96 L 576.14 171.92 L 583.59 171.88 L 591.03 171.84 L 598.48 171.79 L 605.93 171.75 L 613.38 171.71 L 620.83 171.67 L 628.28 171.63 L 635.72 171.59 L 643.17 171.54 L 650.62 171.50 L 658.07 171.46 L 665.52 171.42 L 672.97 171.38 L 680.41 171.33 L 687.86 171.29 L 695.31 171.25 L 702.76 171.21 L 710.21 171.17 L 717.66 171.13 L 725.10 171.08 L 732.55 171.04 L 740.00 171.00 L 747.45 170.96 L 754.90 170.92 L 762.34 170.88 L 769.79 170.84 L 777.24 170.82 L 784.69 170.80 L 792.14 170.79 L 799.59 171.78 L 807.03 173.75 L 814.48 176.70 L 821.93 180.64 L 829.38 185.56 L 836.83 190.48 L 844.28 195.40 L 851.72 200.33 L 859.17 204.26 L 866.62 207.22 L 874.07 209.18 L 881.52 210.17 L 888.97 210.17 L 896.41 210.17 L 903.86 210.17 L 911.31 210.17 L 918.76 210.17 L 926.21 210.17 L 933.66 210.17 L 941.10 210.17 L 948.55 210.17 L 956.00 210.17" fill="none" stroke="#C46A2D" stroke-width="3.4" stroke-linecap="round" stroke-linejoin="round" />
<text x="26.00" y="207.00" fill="#2E2A25" transform="rotate(-90 26 207.00)" font-family="Helvetica, Arial, sans-serif" font-size="12" text-anchor="middle">Norm. compute time</text>
<rect x="92.00" y="352.00" width="864.00" height="254.00" fill="#FCFAF5" />
<line x1="92.00" y1="581.42" x2="956.00" y2="581.42" stroke="#B8AEA1" stroke-width="0.8" stroke-dasharray="3 4" opacity="0.45" />
<text x="80.00" y="585.42" fill="#4D463E" font-family="Helvetica, Arial, sans-serif" font-size="11" text-anchor="end">1.0</text>
<line x1="92.00" y1="540.45" x2="956.00" y2="540.45" stroke="#B8AEA1" stroke-width="0.8" stroke-dasharray="3 4" opacity="0.45" />
<text x="80.00" y="544.45" fill="#4D463E" font-family="Helvetica, Arial, sans-serif" font-size="11" text-anchor="end">1.2</text>
<line x1="92.00" y1="499.48" x2="956.00" y2="499.48" stroke="#B8AEA1" stroke-width="0.8" stroke-dasharray="3 4" opacity="0.45" />
<text x="80.00" y="503.48" fill="#4D463E" font-family="Helvetica, Arial, sans-serif" font-size="11" text-anchor="end">1.4</text>
<line x1="92.00" y1="458.52" x2="956.00" y2="458.52" stroke="#B8AEA1" stroke-width="0.8" stroke-dasharray="3 4" opacity="0.45" />
<text x="80.00" y="462.52" fill="#4D463E" font-family="Helvetica, Arial, sans-serif" font-size="11" text-anchor="end">1.6</text>
<line x1="92.00" y1="417.55" x2="956.00" y2="417.55" stroke="#B8AEA1" stroke-width="0.8" stroke-dasharray="3 4" opacity="0.45" />
<text x="80.00" y="421.55" fill="#4D463E" font-family="Helvetica, Arial, sans-serif" font-size="11" text-anchor="end">1.8</text>
<line x1="92.00" y1="376.58" x2="956.00" y2="376.58" stroke="#B8AEA1" stroke-width="0.8" stroke-dasharray="3 4" opacity="0.45" />
<text x="80.00" y="380.58" fill="#4D463E" font-family="Helvetica, Arial, sans-serif" font-size="11" text-anchor="end">2.0</text>
<line x1="160.21" y1="352.00" x2="160.21" y2="606.00" stroke="#D2C9BD" stroke-width="0.75" opacity="0.25" />
<line x1="273.89" y1="352.00" x2="273.89" y2="606.00" stroke="#D2C9BD" stroke-width="0.75" opacity="0.25" />
<line x1="387.58" y1="352.00" x2="387.58" y2="606.00" stroke="#D2C9BD" stroke-width="0.75" opacity="0.25" />
<line x1="501.26" y1="352.00" x2="501.26" y2="606.00" stroke="#D2C9BD" stroke-width="0.75" opacity="0.25" />
<line x1="614.95" y1="352.00" x2="614.95" y2="606.00" stroke="#D2C9BD" stroke-width="0.75" opacity="0.25" />
<line x1="728.63" y1="352.00" x2="728.63" y2="606.00" stroke="#D2C9BD" stroke-width="0.75" opacity="0.25" />
<line x1="842.32" y1="352.00" x2="842.32" y2="606.00" stroke="#D2C9BD" stroke-width="0.75" opacity="0.25" />
<line x1="956.00" y1="352.00" x2="956.00" y2="606.00" stroke="#D2C9BD" stroke-width="0.75" opacity="0.25" />
<line x1="92.00" y1="606.00" x2="956.00" y2="606.00" stroke="#49423A" stroke-width="1.2" />
<line x1="92.00" y1="352.00" x2="92.00" y2="606.00" stroke="#49423A" stroke-width="1.2" />
<line x1="160.21" y1="352.00" x2="160.21" y2="606.00" stroke="#F08C3A" stroke-width="1.8" stroke-dasharray="5 4" opacity="0.95" />
<text x="166.21" y="367.00" fill="#E07A27" font-family="Helvetica, Arial, sans-serif" font-size="11">GPU3 overload</text>
<rect x="478.53" y="352.00" width="113.68" height="254.00" fill="#F3E3B5" opacity="0.45" />
<line x1="478.53" y1="352.00" x2="478.53" y2="606.00" stroke="#14A27D" stroke-width="2.2" />
<text x="492.53" y="378.00" fill="#14A27D" font-family="Helvetica, Arial, sans-serif" font-size="12" font-weight="700">REPLAN</text>
<rect x="870.00" y="362.00" width="72.00" height="21.00" fill="#F0ECE3" opacity="0.92" rx="4" ry="4" />
<text x="906.00" y="377.00" fill="#7B746A" font-family="Helvetica, Arial, sans-serif" font-size="11" text-anchor="middle">Batch 128</text>
<path d="M 92.00 620.32 L 103.37 620.32 L 114.74 618.38 L 126.11 614.42 L 137.47 606.85 L 148.84 569.83 L 160.21 532.89 L 171.58 497.90 L 182.95 464.38 L 194.32 434.17 L 205.68 433.71 L 217.05 433.36 L 228.42 432.91 L 239.79 433.00 L 251.16 432.53 L 262.53 432.62 L 273.89 432.06 L 285.26 432.15 L 296.63 431.59 L 308.00 431.78 L 319.37 431.22 L 330.74 430.49 L 342.11 426.75 L 353.47 423.58 L 364.84 418.82 L 376.21 413.63 L 387.58 409.18 L 398.95 407.77 L 410.32 405.76 L 421.68 405.15 L 433.05 401.83 L 444.42 398.50 L 455.79 394.17 L 467.16 390.84 L 478.53 387.52 L 489.89 387.52 L 501.26 387.11 L 512.63 387.05 L 524.00 386.58 L 535.37 386.12 L 546.74 385.65 L 558.11 385.59 L 569.47 385.59 L 580.84 387.61 L 592.21 389.63 L 603.58 391.65 L 614.95 397.71 L 626.32 399.73 L 637.68 399.73 L 649.05 399.73 L 660.42 402.27 L 671.79 400.77 L 683.16 403.31 L 694.53 405.84 L 705.89 409.88 L 717.26 409.88 L 728.63 412.50 L 740.00 415.12 L 751.37 415.12 L 762.74 416.23 L 774.11 413.90 L 785.47 414.95 L 796.84 410.00 L 808.21 407.66 L 819.58 402.71 L 830.95 400.95 L 842.32 393.02 L 853.68 390.76 L 865.05 388.49 L 876.42 386.57 L 887.79 386.41 L 899.16 386.41 L 910.53 386.76 L 921.89 387.35 L 933.26 390.28 L 944.63 394.20 L 956.00 398.11" fill="none" stroke="#4C6A92" stroke-width="1.5" opacity="0.16" />
<path d="M 92.00 610.61 L 103.37 611.93 L 114.74 612.57 L 126.11 611.08 L 137.47 609.20 L 148.84 579.02 L 160.21 547.77 L 171.58 516.27 L 182.95 480.73 L 194.32 445.59 L 205.68 438.57 L 217.05 430.24 L 228.42 422.86 L 239.79 420.47 L 251.16 418.09 L 262.53 415.79 L 273.89 415.89 L 285.26 415.98 L 296.63 416.08 L 308.00 418.17 L 319.37 420.29 L 330.74 422.41 L 342.11 428.95 L 353.47 431.07 L 364.84 431.07 L 376.21 429.00 L 387.58 426.92 L 398.95 419.33 L 410.32 414.91 L 421.68 410.62 L 433.05 409.51 L 444.42 408.41 L 455.79 408.41 L 467.16 421.29 L 478.53 439.34 L 489.89 457.44 L 501.26 477.76 L 512.63 498.08 L 524.00 506.75 L 535.37 510.26 L 546.74 512.27 L 558.11 512.05 L 569.47 510.40 L 580.84 508.74 L 592.21 508.52 L 603.58 507.90 L 614.95 507.28 L 626.32 508.09 L 637.68 508.09 L 649.05 507.18 L 660.42 506.90 L 671.79 506.90 L 683.16 506.69 L 694.53 507.22 L 705.89 506.54 L 717.26 506.54 L 728.63 506.26 L 740.00 506.19 L 751.37 505.60 L 762.74 505.69 L 774.11 505.10 L 785.47 504.52 L 796.84 504.42 L 808.21 505.02 L 819.58 505.51 L 830.95 505.99 L 842.32 506.60 L 853.68 506.72 L 865.05 507.71 L 876.42 508.99 L 887.79 510.28 L 899.16 511.73 L 910.53 512.90 L 921.89 513.08 L 933.26 513.08 L 944.63 512.13 L 956.00 510.90" fill="none" stroke="#C46A2D" stroke-width="1.5" opacity="0.16" />
<path d="M 92.00 616.40 L 103.37 616.40 L 114.74 616.40 L 126.11 616.40 L 137.47 616.40 L 148.84 606.92 L 160.21 587.95 L 171.58 559.49 L 182.95 521.55 L 194.32 483.56 L 205.68 455.01 L 217.05 435.89 L 228.42 426.22 L 239.79 425.98 L 251.16 425.75 L 262.53 425.52 L 273.89 425.28 L 285.26 425.05 L 296.63 424.81 L 308.00 424.58 L 319.37 424.34 L 330.74 424.11 L 342.11 423.87 L 353.47 423.64 L 364.84 423.40 L 376.21 423.17 L 387.58 422.93 L 398.95 422.64 L 410.32 422.27 L 421.68 421.85 L 433.05 421.36 L 444.42 420.81 L 455.79 420.26 L 467.16 419.70 L 478.53 419.15 L 489.89 418.60 L 501.26 418.05 L 512.63 417.49 L 524.00 416.94 L 535.37 416.39 L 546.74 415.84 L 558.11 415.28 L 569.47 414.73 L 580.84 414.18 L 592.21 413.63 L 603.58 413.08 L 614.95 412.52 L 626.32 411.97 L 637.68 411.42 L 649.05 410.87 L 660.42 410.31 L 671.79 409.76 L 683.16 409.21 L 694.53 408.66 L 705.89 408.10 L 717.26 407.55 L 728.63 407.00 L 740.00 406.45 L 751.37 405.90 L 762.74 405.34 L 774.11 404.79 L 785.47 404.24 L 796.84 403.69 L 808.21 403.13 L 819.58 402.58 L 830.95 402.03 L 842.32 401.48 L 853.68 400.92 L 865.05 400.37 L 876.42 399.82 L 887.79 399.27 L 899.16 398.72 L 910.53 398.16 L 921.89 397.61 L 933.26 397.06 L 944.63 396.62 L 956.00 396.29" fill="none" stroke="#4C6A92" stroke-width="3.4" stroke-linecap="round" stroke-linejoin="round" />
<path d="M 92.00 610.84 L 103.37 610.84 L 114.74 610.84 L 126.11 610.84 L 137.47 610.84 L 148.84 601.63 L 160.21 583.22 L 171.58 555.60 L 182.95 518.77 L 194.32 481.89 L 205.68 454.19 L 217.05 435.64 L 228.42 426.27 L 239.79 426.06 L 251.16 425.84 L 262.53 425.63 L 273.89 425.42 L 285.26 425.21 L 296.63 425.00 L 308.00 424.79 L 319.37 424.58 L 330.74 424.37 L 342.11 424.15 L 353.47 423.94 L 364.84 423.73 L 376.21 423.52 L 387.58 423.31 L 398.95 423.10 L 410.32 422.89 L 421.68 422.72 L 433.05 422.59 L 444.42 422.51 L 455.79 422.46 L 467.16 424.58 L 478.53 428.82 L 489.89 435.17 L 501.26 443.64 L 512.63 454.23 L 524.00 464.82 L 535.37 475.41 L 546.74 486.00 L 558.11 494.48 L 569.47 500.83 L 580.84 505.07 L 592.21 507.18 L 603.58 507.18 L 614.95 507.18 L 626.32 507.18 L 637.68 507.18 L 649.05 507.18 L 660.42 507.18 L 671.79 507.18 L 683.16 507.18 L 694.53 507.18 L 705.89 507.18 L 717.26 507.18 L 728.63 507.18 L 740.00 507.18 L 751.37 507.18 L 762.74 507.18 L 774.11 507.18 L 785.47 507.18 L 796.84 507.18 L 808.21 507.18 L 819.58 507.18 L 830.95 507.18 L 842.32 507.18 L 853.68 507.18 L 865.05 507.18 L 876.42 507.18 L 887.79 507.18 L 899.16 507.18 L 910.53 507.18 L 921.89 507.18 L 933.26 507.18 L 944.63 507.18 L 956.00 507.18" fill="none" stroke="#C46A2D" stroke-width="3.4" stroke-linecap="round" stroke-linejoin="round" />
<text x="26.00" y="479.00" fill="#2E2A25" transform="rotate(-90 26 479.00)" font-family="Helvetica, Arial, sans-serif" font-size="12" text-anchor="middle">Norm. compute time</text>
<rect x="92.00" y="624.00" width="864.00" height="254.00" fill="#FCFAF5" />
<line x1="92.00" y1="853.42" x2="956.00" y2="853.42" stroke="#B8AEA1" stroke-width="0.8" stroke-dasharray="3 4" opacity="0.45" />
<text x="80.00" y="857.42" fill="#4D463E" font-family="Helvetica, Arial, sans-serif" font-size="11" text-anchor="end">1.0</text>
<line x1="92.00" y1="812.45" x2="956.00" y2="812.45" stroke="#B8AEA1" stroke-width="0.8" stroke-dasharray="3 4" opacity="0.45" />
<text x="80.00" y="816.45" fill="#4D463E" font-family="Helvetica, Arial, sans-serif" font-size="11" text-anchor="end">1.2</text>
<line x1="92.00" y1="771.48" x2="956.00" y2="771.48" stroke="#B8AEA1" stroke-width="0.8" stroke-dasharray="3 4" opacity="0.45" />
<text x="80.00" y="775.48" fill="#4D463E" font-family="Helvetica, Arial, sans-serif" font-size="11" text-anchor="end">1.4</text>
<line x1="92.00" y1="730.52" x2="956.00" y2="730.52" stroke="#B8AEA1" stroke-width="0.8" stroke-dasharray="3 4" opacity="0.45" />
<text x="80.00" y="734.52" fill="#4D463E" font-family="Helvetica, Arial, sans-serif" font-size="11" text-anchor="end">1.6</text>
<line x1="92.00" y1="689.55" x2="956.00" y2="689.55" stroke="#B8AEA1" stroke-width="0.8" stroke-dasharray="3 4" opacity="0.45" />
<text x="80.00" y="693.55" fill="#4D463E" font-family="Helvetica, Arial, sans-serif" font-size="11" text-anchor="end">1.8</text>
<line x1="92.00" y1="648.58" x2="956.00" y2="648.58" stroke="#B8AEA1" stroke-width="0.8" stroke-dasharray="3 4" opacity="0.45" />
<text x="80.00" y="652.58" fill="#4D463E" font-family="Helvetica, Arial, sans-serif" font-size="11" text-anchor="end">2.0</text>
<line x1="160.21" y1="624.00" x2="160.21" y2="878.00" stroke="#D2C9BD" stroke-width="0.75" opacity="0.25" />
<line x1="273.89" y1="624.00" x2="273.89" y2="878.00" stroke="#D2C9BD" stroke-width="0.75" opacity="0.25" />
<line x1="387.58" y1="624.00" x2="387.58" y2="878.00" stroke="#D2C9BD" stroke-width="0.75" opacity="0.25" />
<line x1="501.26" y1="624.00" x2="501.26" y2="878.00" stroke="#D2C9BD" stroke-width="0.75" opacity="0.25" />
<line x1="614.95" y1="624.00" x2="614.95" y2="878.00" stroke="#D2C9BD" stroke-width="0.75" opacity="0.25" />
<line x1="728.63" y1="624.00" x2="728.63" y2="878.00" stroke="#D2C9BD" stroke-width="0.75" opacity="0.25" />
<line x1="842.32" y1="624.00" x2="842.32" y2="878.00" stroke="#D2C9BD" stroke-width="0.75" opacity="0.25" />
<line x1="956.00" y1="624.00" x2="956.00" y2="878.00" stroke="#D2C9BD" stroke-width="0.75" opacity="0.25" />
<line x1="92.00" y1="878.00" x2="956.00" y2="878.00" stroke="#49423A" stroke-width="1.2" />
<line x1="92.00" y1="624.00" x2="92.00" y2="878.00" stroke="#49423A" stroke-width="1.2" />
<line x1="160.21" y1="624.00" x2="160.21" y2="878.00" stroke="#F08C3A" stroke-width="1.8" stroke-dasharray="5 4" opacity="0.95" />
<text x="166.21" y="639.00" fill="#E07A27" font-family="Helvetica, Arial, sans-serif" font-size="11">GPU3 overload</text>
<rect x="546.74" y="624.00" width="113.68" height="254.00" fill="#F3E3B5" opacity="0.45" />
<line x1="546.74" y1="624.00" x2="546.74" y2="878.00" stroke="#14A27D" stroke-width="2.2" />
<text x="560.74" y="650.00" fill="#14A27D" font-family="Helvetica, Arial, sans-serif" font-size="12" font-weight="700">REPLAN</text>
<rect x="870.00" y="634.00" width="72.00" height="21.00" fill="#F0ECE3" opacity="0.92" rx="4" ry="4" />
<text x="906.00" y="649.00" fill="#7B746A" font-family="Helvetica, Arial, sans-serif" font-size="11" text-anchor="middle">Batch 256</text>
<path d="M 92.00 864.93 L 103.37 864.81 L 114.74 864.10 L 126.11 847.01 L 137.47 828.97 L 148.84 810.95 L 160.21 793.04 L 171.58 775.46 L 182.95 774.25 L 194.32 773.97 L 205.68 773.68 L 217.05 773.43 L 228.42 773.43 L 239.79 773.43 L 251.16 773.47 L 262.53 773.47 L 273.89 773.36 L 285.26 773.23 L 296.63 773.12 L 308.00 772.98 L 319.37 772.87 L 330.74 772.84 L 342.11 772.84 L 353.47 772.79 L 364.84 772.59 L 376.21 772.25 L 387.58 771.80 L 398.95 771.36 L 410.32 770.92 L 421.68 770.68 L 433.05 770.45 L 444.42 770.45 L 455.79 771.49 L 467.16 772.65 L 478.53 774.11 L 489.89 775.71 L 501.26 777.17 L 512.63 777.17 L 524.00 777.47 L 535.37 777.97 L 546.74 777.97 L 558.11 777.87 L 569.47 778.19 L 580.84 778.09 L 592.21 777.50 L 603.58 778.14 L 614.95 778.89 L 626.32 779.44 L 637.68 780.00 L 649.05 780.62 L 660.42 780.50 L 671.79 780.38 L 683.16 780.40 L 694.53 780.47 L 705.89 780.43 L 717.26 780.43 L 728.63 780.43 L 740.00 780.43 L 751.37 779.78 L 762.74 779.18 L 774.11 778.54 L 785.47 777.89 L 796.84 777.25 L 808.21 777.22 L 819.58 777.14 L 830.95 777.07 L 842.32 776.99 L 853.68 776.94 L 865.05 776.81 L 876.42 776.70 L 887.79 776.59 L 899.16 776.48 L 910.53 776.48 L 921.89 776.80 L 933.26 777.14 L 944.63 777.47 L 956.00 777.60" fill="none" stroke="#4C6A92" stroke-width="1.5" opacity="0.16" />
<path d="M 92.00 866.39 L 103.37 866.30 L 114.74 866.05 L 126.11 865.73 L 137.47 865.30 L 148.84 818.44 L 160.21 771.04 L 171.58 723.89 L 182.95 676.64 L 194.32 629.49 L 205.68 628.77 L 217.05 628.61 L 228.42 628.44 L 239.79 628.44 L 251.16 628.44 L 262.53 628.38 L 273.89 628.24 L 285.26 627.87 L 296.63 627.81 L 308.00 627.74 L 319.37 627.74 L 330.74 627.33 L 342.11 627.16 L 353.47 626.79 L 364.84 626.43 L 376.21 626.48 L 387.58 627.03 L 398.95 627.57 L 410.32 628.01 L 421.68 628.43 L 433.05 628.43 L 444.42 628.44 L 455.79 628.45 L 467.16 628.45 L 478.53 628.20 L 489.89 628.25 L 501.26 628.30 L 512.63 628.34 L 524.00 628.38 L 535.37 629.27 L 546.74 650.85 L 558.11 681.51 L 569.47 712.27 L 580.84 744.11 L 592.21 775.43 L 603.58 785.84 L 614.95 787.29 L 626.32 788.63 L 637.68 788.89 L 649.05 789.14 L 660.42 789.25 L 671.79 789.31 L 683.16 789.43 L 694.53 789.85 L 705.89 790.21 L 717.26 790.40 L 728.63 790.54 L 740.00 790.62 L 751.37 790.42 L 762.74 790.23 L 774.11 790.25 L 785.47 790.28 L 796.84 790.30 L 808.21 791.01 L 819.58 791.73 L 830.95 792.54 L 842.32 793.25 L 853.68 794.07 L 865.05 794.39 L 876.42 794.70 L 887.79 794.71 L 899.16 794.68 L 910.53 794.31 L 921.89 793.50 L 933.26 792.70 L 944.63 791.69 L 956.00 790.81" fill="none" stroke="#C46A2D" stroke-width="1.5" opacity="0.16" />
<path d="M 92.00 855.56 L 103.37 855.56 L 114.74 855.56 L 126.11 855.56 L 137.47 855.56 L 148.84 847.83 L 160.21 832.36 L 171.58 809.17 L 182.95 778.25 L 194.32 747.32 L 205.68 724.11 L 217.05 708.63 L 228.42 700.88 L 239.79 700.85 L 251.16 700.82 L 262.53 700.79 L 273.89 700.76 L 285.26 700.74 L 296.63 700.71 L 308.00 700.68 L 319.37 700.65 L 330.74 700.62 L 342.11 700.59 L 353.47 700.56 L 364.84 700.54 L 376.21 700.51 L 387.58 700.48 L 398.95 700.78 L 410.32 701.40 L 421.68 702.35 L 433.05 703.63 L 444.42 705.24 L 455.79 706.84 L 467.16 708.45 L 478.53 710.06 L 489.89 711.66 L 501.26 713.27 L 512.63 714.87 L 524.00 716.48 L 535.37 718.08 L 546.74 719.69 L 558.11 721.29 L 569.47 722.90 L 580.84 724.50 L 592.21 726.11 L 603.58 727.72 L 614.95 729.32 L 626.32 730.93 L 637.68 732.53 L 649.05 734.14 L 660.42 735.74 L 671.79 737.35 L 683.16 738.95 L 694.53 740.56 L 705.89 742.16 L 717.26 743.77 L 728.63 745.38 L 740.00 746.98 L 751.37 748.59 L 762.74 750.19 L 774.11 751.80 L 785.47 753.40 L 796.84 755.01 L 808.21 756.61 L 819.58 758.22 L 830.95 759.82 L 842.32 761.43 L 853.68 763.04 L 865.05 764.64 L 876.42 766.25 L 887.79 767.85 L 899.16 769.46 L 910.53 771.06 L 921.89 772.67 L 933.26 774.27 L 944.63 775.56 L 956.00 776.52" fill="none" stroke="#4C6A92" stroke-width="3.4" stroke-linecap="round" stroke-linejoin="round" />
<path d="M 92.00 865.89 L 103.37 865.89 L 114.74 865.89 L 126.11 865.89 L 137.47 865.89 L 148.84 857.64 L 160.21 841.15 L 171.58 816.40 L 182.95 783.41 L 194.32 750.42 L 205.68 725.67 L 217.05 709.16 L 228.42 700.90 L 239.79 700.88 L 251.16 700.86 L 262.53 700.84 L 273.89 700.82 L 285.26 700.80 L 296.63 700.78 L 308.00 700.76 L 319.37 700.74 L 330.74 700.72 L 342.11 700.70 L 353.47 700.68 L 364.84 700.66 L 376.21 700.64 L 387.58 700.62 L 398.95 700.60 L 410.32 700.58 L 421.68 700.56 L 433.05 700.54 L 444.42 700.52 L 455.79 700.50 L 467.16 700.48 L 478.53 700.46 L 489.89 700.45 L 501.26 700.43 L 512.63 700.43 L 524.00 700.42 L 535.37 702.68 L 546.74 707.19 L 558.11 713.95 L 569.47 722.97 L 580.84 734.25 L 592.21 745.52 L 603.58 756.80 L 614.95 768.07 L 626.32 777.09 L 637.68 783.85 L 649.05 788.36 L 660.42 790.62 L 671.79 790.62 L 683.16 790.62 L 694.53 790.62 L 705.89 790.62 L 717.26 790.62 L 728.63 790.62 L 740.00 790.62 L 751.37 790.62 L 762.74 790.62 L 774.11 790.62 L 785.47 790.62 L 796.84 790.62 L 808.21 790.62 L 819.58 790.62 L 830.95 790.62 L 842.32 790.62 L 853.68 790.62 L 865.05 790.62 L 876.42 790.62 L 887.79 790.62 L 899.16 790.62 L 910.53 790.62 L 921.89 790.62 L 933.26 790.62 L 944.63 790.62 L 956.00 790.62" fill="none" stroke="#C46A2D" stroke-width="3.4" stroke-linecap="round" stroke-linejoin="round" />
<text x="26.00" y="751.00" fill="#2E2A25" transform="rotate(-90 26 751.00)" font-family="Helvetica, Arial, sans-serif" font-size="12" text-anchor="middle">Norm. compute time</text>
<rect x="92.00" y="896.00" width="864.00" height="254.00" fill="#FCFAF5" />
<line x1="92.00" y1="1125.42" x2="956.00" y2="1125.42" stroke="#B8AEA1" stroke-width="0.8" stroke-dasharray="3 4" opacity="0.45" />
<text x="80.00" y="1129.42" fill="#4D463E" font-family="Helvetica, Arial, sans-serif" font-size="11" text-anchor="end">1.0</text>
<line x1="92.00" y1="1084.45" x2="956.00" y2="1084.45" stroke="#B8AEA1" stroke-width="0.8" stroke-dasharray="3 4" opacity="0.45" />
<text x="80.00" y="1088.45" fill="#4D463E" font-family="Helvetica, Arial, sans-serif" font-size="11" text-anchor="end">1.2</text>
<line x1="92.00" y1="1043.48" x2="956.00" y2="1043.48" stroke="#B8AEA1" stroke-width="0.8" stroke-dasharray="3 4" opacity="0.45" />
<text x="80.00" y="1047.48" fill="#4D463E" font-family="Helvetica, Arial, sans-serif" font-size="11" text-anchor="end">1.4</text>
<line x1="92.00" y1="1002.52" x2="956.00" y2="1002.52" stroke="#B8AEA1" stroke-width="0.8" stroke-dasharray="3 4" opacity="0.45" />
<text x="80.00" y="1006.52" fill="#4D463E" font-family="Helvetica, Arial, sans-serif" font-size="11" text-anchor="end">1.6</text>
<line x1="92.00" y1="961.55" x2="956.00" y2="961.55" stroke="#B8AEA1" stroke-width="0.8" stroke-dasharray="3 4" opacity="0.45" />
<text x="80.00" y="965.55" fill="#4D463E" font-family="Helvetica, Arial, sans-serif" font-size="11" text-anchor="end">1.8</text>
<line x1="92.00" y1="920.58" x2="956.00" y2="920.58" stroke="#B8AEA1" stroke-width="0.8" stroke-dasharray="3 4" opacity="0.45" />
<text x="80.00" y="924.58" fill="#4D463E" font-family="Helvetica, Arial, sans-serif" font-size="11" text-anchor="end">2.0</text>
<line x1="160.21" y1="896.00" x2="160.21" y2="1150.00" stroke="#D2C9BD" stroke-width="0.75" opacity="0.25" />
<text x="160.21" y="1168.00" fill="#4D463E" font-family="Helvetica, Arial, sans-serif" font-size="11" text-anchor="middle">0</text>
<line x1="273.89" y1="896.00" x2="273.89" y2="1150.00" stroke="#D2C9BD" stroke-width="0.75" opacity="0.25" />
<text x="273.89" y="1168.00" fill="#4D463E" font-family="Helvetica, Arial, sans-serif" font-size="11" text-anchor="middle">10</text>
<line x1="387.58" y1="896.00" x2="387.58" y2="1150.00" stroke="#D2C9BD" stroke-width="0.75" opacity="0.25" />
<text x="387.58" y="1168.00" fill="#4D463E" font-family="Helvetica, Arial, sans-serif" font-size="11" text-anchor="middle">20</text>
<line x1="501.26" y1="896.00" x2="501.26" y2="1150.00" stroke="#D2C9BD" stroke-width="0.75" opacity="0.25" />
<text x="501.26" y="1168.00" fill="#4D463E" font-family="Helvetica, Arial, sans-serif" font-size="11" text-anchor="middle">30</text>
<line x1="614.95" y1="896.00" x2="614.95" y2="1150.00" stroke="#D2C9BD" stroke-width="0.75" opacity="0.25" />
<text x="614.95" y="1168.00" fill="#4D463E" font-family="Helvetica, Arial, sans-serif" font-size="11" text-anchor="middle">40</text>
<line x1="728.63" y1="896.00" x2="728.63" y2="1150.00" stroke="#D2C9BD" stroke-width="0.75" opacity="0.25" />
<text x="728.63" y="1168.00" fill="#4D463E" font-family="Helvetica, Arial, sans-serif" font-size="11" text-anchor="middle">50</text>
<line x1="842.32" y1="896.00" x2="842.32" y2="1150.00" stroke="#D2C9BD" stroke-width="0.75" opacity="0.25" />
<text x="842.32" y="1168.00" fill="#4D463E" font-family="Helvetica, Arial, sans-serif" font-size="11" text-anchor="middle">60</text>
<line x1="956.00" y1="896.00" x2="956.00" y2="1150.00" stroke="#D2C9BD" stroke-width="0.75" opacity="0.25" />
<text x="956.00" y="1168.00" fill="#4D463E" font-family="Helvetica, Arial, sans-serif" font-size="11" text-anchor="middle">70</text>
<line x1="92.00" y1="1150.00" x2="956.00" y2="1150.00" stroke="#49423A" stroke-width="1.2" />
<line x1="92.00" y1="896.00" x2="92.00" y2="1150.00" stroke="#49423A" stroke-width="1.2" />
<line x1="160.21" y1="896.00" x2="160.21" y2="1150.00" stroke="#F08C3A" stroke-width="1.8" stroke-dasharray="5 4" opacity="0.95" />
<text x="166.21" y="911.00" fill="#E07A27" font-family="Helvetica, Arial, sans-serif" font-size="11">GPU3 overload</text>
<rect x="637.68" y="896.00" width="113.68" height="254.00" fill="#F3E3B5" opacity="0.45" />
<line x1="637.68" y1="896.00" x2="637.68" y2="1150.00" stroke="#14A27D" stroke-width="2.2" />
<text x="651.68" y="922.00" fill="#14A27D" font-family="Helvetica, Arial, sans-serif" font-size="12" font-weight="700">REPLAN</text>
<rect x="870.00" y="906.00" width="72.00" height="21.00" fill="#F0ECE3" opacity="0.92" rx="4" ry="4" />
<text x="906.00" y="921.00" fill="#7B746A" font-family="Helvetica, Arial, sans-serif" font-size="11" text-anchor="middle">Batch 512</text>
<path d="M 92.00 1129.39 L 103.37 1129.31 L 114.74 1129.15 L 126.11 1128.97 L 137.47 1128.74 L 148.84 1108.13 L 160.21 1087.24 L 171.58 1066.33 L 182.95 1045.28 L 194.32 1024.23 L 205.68 1023.56 L 217.05 1023.25 L 228.42 1023.07 L 239.79 1023.04 L 251.16 1023.05 L 262.53 1023.07 L 273.89 1023.19 L 285.26 1023.31 L 296.63 1023.51 L 308.00 1023.71 L 319.37 1023.91 L 330.74 1024.00 L 342.11 1024.09 L 353.47 1024.09 L 364.84 1024.25 L 376.21 1024.53 L 387.58 1024.81 L 398.95 1025.07 L 410.32 1025.50 L 421.68 1025.61 L 433.05 1025.59 L 444.42 1025.57 L 455.79 1025.44 L 467.16 1025.15 L 478.53 1024.95 L 489.89 1024.74 L 501.26 1024.52 L 512.63 1024.37 L 524.00 1024.21 L 535.37 1024.13 L 546.74 1024.13 L 558.11 1024.61 L 569.47 1024.68 L 580.84 1024.68 L 592.21 1024.68 L 603.58 1024.61 L 614.95 1024.04 L 626.32 1023.96 L 637.68 1023.88 L 649.05 1023.78 L 660.42 1023.67 L 671.79 1023.59 L 683.16 1023.50 L 694.53 1023.49 L 705.89 1023.49 L 717.26 1023.49 L 728.63 1023.49 L 740.00 1023.50 L 751.37 1023.50 L 762.74 1023.54 L 774.11 1023.48 L 785.47 1023.42 L 796.84 1023.35 L 808.21 1023.42 L 819.58 1023.45 L 830.95 1023.59 L 842.32 1023.67 L 853.68 1023.81 L 865.05 1023.75 L 876.42 1023.69 L 887.79 1023.63 L 899.16 1023.63 L 910.53 1023.42 L 921.89 1023.24 L 933.26 1023.09 L 944.63 1023.09 L 956.00 1023.09" fill="none" stroke="#4C6A92" stroke-width="1.5" opacity="0.16" />
<path d="M 92.00 1154.99 L 103.37 1155.17 L 114.74 1155.30 L 126.11 1154.20 L 137.47 1152.94 L 148.84 1109.54 L 160.21 1066.12 L 171.58 1022.88 L 182.95 980.48 L 194.32 938.09 L 205.68 937.77 L 217.05 936.99 L 228.42 935.94 L 239.79 935.03 L 251.16 934.00 L 262.53 933.02 L 273.89 932.23 L 285.26 931.71 L 296.63 931.31 L 308.00 931.04 L 319.37 930.69 L 330.74 930.69 L 342.11 930.69 L 353.47 930.69 L 364.84 930.68 L 376.21 930.72 L 387.58 930.70 L 398.95 930.71 L 410.32 930.72 L 421.68 930.79 L 433.05 930.82 L 444.42 930.84 L 455.79 930.84 L 467.16 930.84 L 478.53 930.79 L 489.89 930.74 L 501.26 930.67 L 512.63 929.68 L 524.00 928.70 L 535.37 927.71 L 546.74 927.69 L 558.11 927.87 L 569.47 928.97 L 580.84 930.06 L 592.21 931.36 L 603.58 932.31 L 614.95 933.40 L 626.32 956.70 L 637.68 991.58 L 649.05 1026.46 L 660.42 1060.83 L 671.79 1094.94 L 683.16 1106.89 L 694.53 1107.51 L 705.89 1107.93 L 717.26 1108.34 L 728.63 1108.73 L 740.00 1109.08 L 751.37 1109.46 L 762.74 1109.56 L 774.11 1109.62 L 785.47 1109.62 L 796.84 1109.62 L 808.21 1108.92 L 819.58 1108.49 L 830.95 1107.97 L 842.32 1107.39 L 853.68 1106.81 L 865.05 1106.72 L 876.42 1106.64 L 887.79 1106.95 L 899.16 1107.64 L 910.53 1108.37 L 921.89 1109.00 L 933.26 1109.66 L 944.63 1110.01 L 956.00 1110.01" fill="none" stroke="#C46A2D" stroke-width="1.5" opacity="0.16" />
<path d="M 92.00 1129.06 L 103.37 1129.06 L 114.74 1129.06 L 126.11 1129.06 L 137.47 1129.06 L 148.84 1121.56 L 160.21 1106.56 L 171.58 1084.05 L 182.95 1054.05 L 194.32 1024.03 L 205.68 1001.49 L 217.05 986.44 L 228.42 978.87 L 239.79 978.77 L 251.16 978.68 L 262.53 978.59 L 273.89 978.50 L 285.26 978.41 L 296.63 978.32 L 308.00 978.23 L 319.37 978.14 L 330.74 978.04 L 342.11 977.95 L 353.47 977.86 L 364.84 977.77 L 376.21 977.68 L 387.58 977.59 L 398.95 977.71 L 410.32 978.04 L 421.68 978.58 L 433.05 979.33 L 444.42 980.30 L 455.79 981.26 L 467.16 982.23 L 478.53 983.19 L 489.89 984.16 L 501.26 985.12 L 512.63 986.08 L 524.00 987.05 L 535.37 988.01 L 546.74 988.98 L 558.11 989.94 L 569.47 990.90 L 580.84 991.87 L 592.21 992.83 L 603.58 993.80 L 614.95 994.76 L 626.32 995.72 L 637.68 996.69 L 649.05 997.65 L 660.42 998.62 L 671.79 999.58 L 683.16 1000.54 L 694.53 1001.51 L 705.89 1002.47 L 717.26 1003.44 L 728.63 1004.40 L 740.00 1005.37 L 751.37 1006.33 L 762.74 1007.29 L 774.11 1008.26 L 785.47 1009.22 L 796.84 1010.19 L 808.21 1011.15 L 819.58 1012.11 L 830.95 1013.08 L 842.32 1014.04 L 853.68 1015.01 L 865.05 1015.97 L 876.42 1016.93 L 887.79 1017.90 L 899.16 1018.86 L 910.53 1019.83 L 921.89 1020.79 L 933.26 1021.75 L 944.63 1022.53 L 956.00 1023.10" fill="none" stroke="#4C6A92" stroke-width="3.4" stroke-linecap="round" stroke-linejoin="round" />
<path d="M 92.00 1154.59 L 103.37 1154.59 L 114.74 1154.59 L 126.11 1154.59 L 137.47 1154.59 L 148.84 1145.82 L 160.21 1128.26 L 171.58 1101.93 L 182.95 1066.82 L 194.32 1031.70 L 205.68 1005.35 L 217.05 987.77 L 228.42 978.95 L 239.79 978.90 L 251.16 978.85 L 262.53 978.81 L 273.89 978.76 L 285.26 978.71 L 296.63 978.66 L 308.00 978.61 L 319.37 978.57 L 330.74 978.52 L 342.11 978.47 L 353.47 978.42 L 364.84 978.37 L 376.21 978.32 L 387.58 978.28 L 398.95 978.23 L 410.32 978.18 L 421.68 978.13 L 433.05 978.08 L 444.42 978.03 L 455.79 977.99 L 467.16 977.94 L 478.53 977.89 L 489.89 977.84 L 501.26 977.79 L 512.63 977.74 L 524.00 977.70 L 535.37 977.65 L 546.74 977.60 L 558.11 977.55 L 569.47 977.50 L 580.84 977.46 L 592.21 977.44 L 603.58 977.42 L 614.95 977.41 L 626.32 980.69 L 637.68 987.27 L 649.05 997.13 L 660.42 1010.28 L 671.79 1026.72 L 683.16 1043.16 L 694.53 1059.60 L 705.89 1076.04 L 717.26 1089.19 L 728.63 1099.05 L 740.00 1105.63 L 751.37 1108.92 L 762.74 1108.92 L 774.11 1108.92 L 785.47 1108.92 L 796.84 1108.92 L 808.21 1108.92 L 819.58 1108.92 L 830.95 1108.92 L 842.32 1108.92 L 853.68 1108.92 L 865.05 1108.92 L 876.42 1108.92 L 887.79 1108.92 L 899.16 1108.92 L 910.53 1108.92 L 921.89 1108.92 L 933.26 1108.92 L 944.63 1108.92 L 956.00 1108.92" fill="none" stroke="#C46A2D" stroke-width="3.4" stroke-linecap="round" stroke-linejoin="round" />
<text x="26.00" y="1023.00" fill="#2E2A25" transform="rotate(-90 26 1023.00)" font-family="Helvetica, Arial, sans-serif" font-size="12" text-anchor="middle">Norm. compute time</text>
<text x="524.00" y="1200.00" fill="#2E2A25" font-family="Helvetica, Arial, sans-serif" font-size="13" text-anchor="middle">Steps from overload onset</text>
</svg>